<svg xmlns="http://www.w3.org/2000/svg" xmlns:xlink="http://www.w3.org/1999/xlink" width="500px" height="500px" viewBox="0 0 500 500" version="1.1">
    <title>Deliverees</title>
    <g id="Deliverees" stroke="none" stroke-width="1" fill="none" fill-rule="evenodd">
        <g id="Group-5" transform="translate(86.000000, 110.000000)">
            <g id="Group-32" transform="translate(66.200001, 0.000000)" fill="#32B9B2">
                <path d="M83.4287326,129.733796 C83.2229433,136.120041 85.8650123,139.064176 91.7970549,139.352895 C97.0055157,139.607179 101.494378,135.877676 101.759912,131.07806 C102.014826,126.453264 97.5817257,122.197975 92.3666266,122.163541 C87.0824884,122.129106 83.2773779,123.864067 83.4287326,129.733796 M141.900003,139.700003 C142.245198,134.802381 136.077602,137.77112 130.837277,137.69298 C126.42542,137.62676 118.839833,134.634183 118.800003,139.700003 C118.753534,145.518081 125.531896,144.438581 129.206894,144.675648 C136.43209,145.006747 141.509667,145.221416 141.900003,139.700003 Z M137.777023,38.545061 C139.054244,26.7989804 140.472199,15.0674681 141.598066,3.3081434 C141.887498,0.293814885 143.07311,-0.225348902 145.797495,0.0739649143 C161.505193,1.80362794 177.222185,3.46707109 192.953781,4.96628897 C195.954322,5.25368321 197.212956,5.91985511 196.834569,9.29441972 C192.586016,47.1231831 187.710801,84.906917 184.67043,122.83501 C183.264424,140.367383 177.973648,156.013814 170.52142,171.478803 C164.436695,184.10031 158.787447,196.937694 153.219186,209.797593 C151.544991,213.667483 149.424697,215.140212 145.204025,214.247569 C102.941541,205.318481 60.664453,196.460911 18.3754156,187.657642 C14.4959554,186.848435 12.7142183,185.102879 11.8844228,180.923081 C8.39662606,163.345678 4.56230671,145.829198 0.406690519,128.396155 C-0.743074216,123.568726 0.459797435,122.049642 5.10930795,121.122564 C26.613626,116.836814 48.0276623,112.096796 69.5386186,107.842831 C75.0285461,106.75815 77.7781567,105.874777 76.0667863,98.8620925 C70.7813205,77.2068704 66.6456194,55.2761736 61.7106592,33.5308924 C60.4161781,27.830686 61.2419907,25.4388242 67.6387187,24.3766575 C81.251349,22.1145867 94.7006755,18.8618667 108.193815,15.9150824 C112.37864,15.0012482 114.718,15.1654735 115.788104,20.5729881 C120.116318,42.4427626 125.122972,64.178773 129.878697,85.9651105 C130.185389,87.372945 129.773811,89.1343935 132.22735,89.9118148 C134.086092,72.6906752 135.918281,55.6165437 137.777023,38.545061 Z" id="Fill-28"/>
            </g>
            <path d="M15.8706004,280.139206 C18.5194004,280.139206 20.9166672,279.435939 23.0624005,278.029406 C24.0011589,277.414048 24.8554178,276.706329 25.6251772,275.906251 L25.9411006,275.566506 L25.9422006,279.400006 L35.5210008,279.400006 L35.5210008,231.259605 L25.9422006,231.259605 L25.9411006,250.453505 L25.8690506,250.374855 C25.1166964,249.59106 24.2827904,248.898641 23.3673326,248.2976 L22.9700005,248.045605 C20.8242672,246.731472 18.4578004,246.074405 15.8706004,246.074405 C13.2218003,246.074405 10.7424003,246.726339 8.43240023,248.030205 C6.12240018,249.334072 4.2538668,251.238539 2.8268001,253.743605 C1.39973341,256.248672 0.686200058,259.297872 0.686200058,262.891206 C0.686200058,266.648806 1.38433341,269.810939 2.7806001,272.377606 C4.1768668,274.944273 6.02486684,276.879539 8.32460022,278.183406 C10.6243336,279.487273 13.139667,280.139206 15.8706004,280.139206 Z M18.3038004,271.854006 C16.2094004,271.854006 14.387067,271.130206 12.8368003,269.682606 C11.2865336,268.235006 10.5114003,265.971206 10.5114003,262.891206 C10.5114003,259.811206 11.2814003,257.567939 12.8214003,256.161406 C14.3614004,254.754872 16.1888671,254.051606 18.3038004,254.051606 C19.5768671,254.051606 20.7986005,254.354472 21.9690005,254.960206 C23.1394005,255.565939 24.0942006,256.423206 24.8334006,257.532006 C25.5726006,258.640806 25.9422006,259.965206 25.9422006,261.505206 L25.9422006,261.505206 L25.9422006,261.905606 L25.9422006,264.184806 C25.9422006,265.745339 25.5828673,267.100539 24.8642006,268.250406 C24.1455339,269.400273 23.2010005,270.288339 22.0306005,270.914606 C20.8602005,271.540873 19.6179338,271.854006 18.3038004,271.854006 Z M59.2370013,280.139206 C61.9063347,280.139206 64.2830681,279.831206 66.3672015,279.215206 C68.4513349,278.599206 70.2223349,277.762473 71.6802016,276.705006 C73.1380683,275.647539 74.2776683,274.456606 75.0990017,273.132206 C75.920335,271.807806 76.3926017,270.457739 76.5158017,269.082006 L76.5158017,269.082006 L67.0910015,269.082006 C67.0294015,269.513206 66.8446015,269.954673 66.5366015,270.406406 C66.2286015,270.858139 65.7820015,271.268806 65.1968015,271.638406 C64.6116014,272.008006 63.8570014,272.310873 62.9330014,272.547006 C62.0090014,272.783139 60.910468,272.901206 59.6374013,272.901206 C57.6662013,272.901206 56.0184013,272.500806 54.6940012,271.700006 C53.3696012,270.899206 52.3737345,269.754473 51.7064012,268.265806 C51.3984012,267.578729 51.1614781,266.827136 50.9956319,266.011027 L50.9760011,265.909606 L76.8546017,265.909606 C76.8888239,265.721384 76.9159165,265.447606 76.9358795,265.088272 L76.9470017,264.862406 C76.967535,264.390139 76.9778017,263.897339 76.9778017,263.384006 C76.9778017,259.934406 76.259135,256.910872 74.8218017,254.313406 C73.3844683,251.715939 71.3414016,249.693405 68.6926015,248.245805 C66.0438015,246.798205 62.9022014,246.074405 59.2678013,246.074405 C55.7155346,246.074405 52.5893345,246.787939 49.8892011,248.215005 C47.1890677,249.642072 45.084401,251.633805 43.575201,254.190206 C42.066001,256.746606 41.3114009,259.718806 41.3114009,263.106806 C41.3114009,266.453739 42.050601,269.405406 43.529001,271.961806 C45.007401,274.518206 47.0915344,276.520206 49.7814011,277.967806 C52.4712678,279.415406 55.6231346,280.139206 59.2370013,280.139206 Z M67.2120015,259.595606 L51.0673012,259.595606 L51.096142,259.476597 C51.2263889,258.963871 51.3891976,258.479333 51.584568,258.022983 L51.7372012,257.686006 C52.4250678,256.248672 53.4209345,255.145006 54.7248012,254.375006 C56.0286679,253.605005 57.584068,253.220005 59.3910013,253.220005 C61.1979347,253.220005 62.6814681,253.563939 63.8416014,254.251806 C65.0017348,254.939672 65.8590015,255.822606 66.4134015,256.900606 C66.8569215,257.763006 67.1230335,258.654974 67.2117375,259.57651 L67.2120015,259.595606 Z M92.8090021,279.400006 L92.8090021,231.259605 L83.3842019,231.259605 L83.3842019,279.400006 L92.8090021,279.400006 Z M104.759402,241.362005 C106.258336,241.362005 107.557069,240.977005 108.655602,240.207005 C109.754136,239.437005 110.303402,238.333338 110.303402,236.896005 C110.303402,235.458672 109.754136,234.349872 108.655602,233.569605 C107.557069,232.789338 106.258336,232.399205 104.759402,232.399205 C103.281002,232.399205 101.992536,232.789338 100.894002,233.569605 C99.7954689,234.349872 99.2462022,235.458672 99.2462022,236.896005 C99.2462022,238.312805 99.7954689,239.411339 100.894002,240.191605 C101.992536,240.971872 103.281002,241.362005 104.759402,241.362005 Z M109.502602,279.400006 L109.502602,246.690405 L100.047002,246.690405 L100.047002,279.400006 L109.502602,279.400006 Z M136.668203,279.400006 L146.585803,246.690405 L136.699003,246.690405 L130.217803,273.498506 L123.516603,246.690405 L113.660603,246.690405 L123.793803,279.400006 L136.668203,279.400006 Z M167.560604,280.139206 C170.229937,280.139206 172.60667,279.831206 174.690804,279.215206 C176.774937,278.599206 178.545937,277.762473 180.003804,276.705006 C181.461671,275.647539 182.601271,274.456606 183.422604,273.132206 C184.243937,271.807806 184.716204,270.457739 184.839404,269.082006 L184.839404,269.082006 L175.414604,269.082006 C175.353004,269.513206 175.168204,269.954673 174.860204,270.406406 C174.552204,270.858139 174.105604,271.268806 173.520404,271.638406 C172.935204,272.008006 172.180604,272.310873 171.256604,272.547006 C170.332604,272.783139 169.23407,272.901206 167.961004,272.901206 C165.989804,272.901206 164.342004,272.500806 163.017604,271.700006 C161.693204,270.899206 160.697337,269.754473 160.030004,268.265806 C159.722004,267.578729 159.48508,266.827136 159.319234,266.011027 L159.299603,265.909606 L185.178204,265.909606 C185.212426,265.721384 185.239519,265.447606 185.259482,265.088272 L185.270604,264.862406 C185.291137,264.390139 185.301404,263.897339 185.301404,263.384006 C185.301404,259.934406 184.582737,256.910872 183.145404,254.313406 C181.708071,251.715939 179.665004,249.693405 177.016204,248.245805 C174.367404,246.798205 171.225804,246.074405 167.591404,246.074405 C164.039137,246.074405 160.912937,246.787939 158.212803,248.215005 C155.51267,249.642072 153.408003,251.633805 151.898803,254.190206 C150.389603,256.746606 149.635003,259.718806 149.635003,263.106806 C149.635003,266.453739 150.374203,269.405406 151.852603,271.961806 C153.331003,274.518206 155.415137,276.520206 158.105003,277.967806 C160.79487,279.415406 163.946737,280.139206 167.560604,280.139206 Z M175.535604,259.595606 L159.390903,259.595606 L159.419744,259.476597 C159.549991,258.963871 159.7128,258.479333 159.90817,258.022983 L160.060804,257.686006 C160.74867,256.248672 161.744537,255.145006 163.048404,254.375006 C164.35227,253.605005 165.90767,253.220005 167.714604,253.220005 C169.521537,253.220005 171.00507,253.563939 172.165204,254.251806 C173.325337,254.939672 174.182604,255.822606 174.737004,256.900606 C175.180524,257.763006 175.446636,258.654974 175.53534,259.57651 L175.535604,259.595606 Z M200.824604,279.400006 L200.824604,263.969206 C200.824604,262.839872 200.968338,261.720806 201.255804,260.612006 C201.543271,259.503206 202.020671,258.491939 202.688004,257.578206 C203.355338,256.664472 204.243404,255.930406 205.352204,255.376006 C206.461005,254.821606 207.836738,254.544406 209.479405,254.544406 C210.485538,254.544406 211.306871,254.657339 211.943405,254.883206 C212.579938,255.109072 212.990605,255.273339 213.175405,255.376006 L213.175405,255.376006 L214.746205,246.813605 C214.561405,246.710939 214.094271,246.562072 213.344805,246.367005 C212.595338,246.171939 211.563538,246.074405 210.249405,246.074405 C208.565671,246.074405 207.071871,246.341339 205.768005,246.875205 C204.464138,247.409072 203.339938,248.153405 202.395404,249.108205 C201.870664,249.63865 201.399791,250.221378 200.982787,250.856391 L200.823504,251.109105 L200.824604,246.690405 L191.245804,246.690405 L191.245804,279.400006 L200.824604,279.400006 Z M235.998205,280.139206 C238.667539,280.139206 241.044272,279.831206 243.128405,279.215206 C245.212539,278.599206 246.983539,277.762473 248.441405,276.705006 C249.899272,275.647539 251.038872,274.456606 251.860206,273.132206 C252.681539,271.807806 253.153806,270.457739 253.277006,269.082006 L253.277006,269.082006 L243.852205,269.082006 C243.790605,269.513206 243.605805,269.954673 243.297805,270.406406 C242.989805,270.858139 242.543205,271.268806 241.958005,271.638406 C241.372805,272.008006 240.618205,272.310873 239.694205,272.547006 C238.770205,272.783139 237.671672,272.901206 236.398605,272.901206 C234.427405,272.901206 232.779605,272.500806 231.455205,271.700006 C230.130805,270.899206 229.134938,269.754473 228.467605,268.265806 C228.159605,267.578729 227.922682,266.827136 227.756836,266.011027 L227.737205,265.909606 L253.615806,265.909606 C253.650028,265.721384 253.67712,265.447606 253.697083,265.088272 L253.708206,264.862406 C253.728739,264.390139 253.739006,263.897339 253.739006,263.384006 C253.739006,259.934406 253.020339,256.910872 251.583005,254.313406 C250.145672,251.715939 248.102605,249.693405 245.453805,248.245805 C242.805005,246.798205 239.663405,246.074405 236.029005,246.074405 C232.476738,246.074405 229.350538,246.787939 226.650405,248.215005 C223.950272,249.642072 221.845605,251.633805 220.336405,254.190206 C218.827205,256.746606 218.072605,259.718806 218.072605,263.106806 C218.072605,266.453739 218.811805,269.405406 220.290205,271.961806 C221.768605,274.518206 223.852738,276.520206 226.542605,277.967806 C229.232472,279.415406 232.384338,280.139206 235.998205,280.139206 Z M243.973205,259.595606 L227.828505,259.595606 L227.857346,259.476597 C227.987593,258.963871 228.150401,258.479333 228.345772,258.022983 L228.498405,257.686006 C229.186272,256.248672 230.182138,255.145006 231.486005,254.375006 C232.789872,253.605005 234.345272,253.220005 236.152205,253.220005 C237.959139,253.220005 239.442672,253.563939 240.602805,254.251806 C241.762939,254.939672 242.620205,255.822606 243.174605,256.900606 C243.618125,257.763006 243.884237,258.654974 243.972941,259.57651 L243.973205,259.595606 Z M276.099806,280.139206 C278.769139,280.139206 281.145873,279.831206 283.230006,279.215206 C285.31414,278.599206 287.08514,277.762473 288.543006,276.705006 C290.000873,275.647539 291.140473,274.456606 291.961806,273.132206 C292.78314,271.807806 293.255406,270.457739 293.378606,269.082006 L293.378606,269.082006 L283.953806,269.082006 C283.892206,269.513206 283.707406,269.954673 283.399406,270.406406 C283.091406,270.858139 282.644806,271.268806 282.059606,271.638406 C281.474406,272.008006 280.719806,272.310873 279.795806,272.547006 C278.871806,272.783139 277.773273,272.901206 276.500206,272.901206 C274.529006,272.901206 272.881206,272.500806 271.556806,271.700006 C270.232406,270.899206 269.236539,269.754473 268.569206,268.265806 C268.261206,267.578729 268.024283,266.827136 267.858437,266.011027 L267.838806,265.909606 L293.717406,265.909606 C293.751629,265.721384 293.778721,265.447606 293.798684,265.088272 L293.809806,264.862406 C293.83034,264.390139 293.840606,263.897339 293.840606,263.384006 C293.840606,259.934406 293.12194,256.910872 291.684606,254.313406 C290.247273,251.715939 288.204206,249.693405 285.555406,248.245805 C282.906606,246.798205 279.765006,246.074405 276.130606,246.074405 C272.578339,246.074405 269.452139,246.787939 266.752006,248.215005 C264.051872,249.642072 261.947206,251.633805 260.438006,254.190206 C258.928806,256.746606 258.174206,259.718806 258.174206,263.106806 C258.174206,266.453739 258.913406,269.405406 260.391806,271.961806 C261.870206,274.518206 263.954339,276.520206 266.644206,277.967806 C269.334073,279.415406 272.485939,280.139206 276.099806,280.139206 Z M284.074806,259.595606 L267.930106,259.595606 L267.958947,259.476597 C268.089194,258.963871 268.252002,258.479333 268.447373,258.022983 L268.600006,257.686006 C269.287873,256.248672 270.283739,255.145006 271.587606,254.375006 C272.891473,253.605005 274.446873,253.220005 276.253806,253.220005 C278.060739,253.220005 279.544273,253.563939 280.704406,254.251806 C281.864539,254.939672 282.721806,255.822606 283.276206,256.900606 C283.719726,257.763006 283.985838,258.654974 284.074542,259.57651 L284.074806,259.595606 Z M313.398607,280.139206 C315.287674,280.139206 317.13054,279.939006 318.927207,279.538606 C320.723874,279.138206 322.356274,278.522206 323.824407,277.690606 C325.29254,276.859006 326.457807,275.775873 327.320207,274.441206 C328.182607,273.106539 328.613807,271.504939 328.613807,269.636406 C328.613807,267.829472 328.198007,266.335672 327.366407,265.155006 C326.534807,263.974339 325.44654,263.019539 324.101607,262.290606 C322.756674,261.561672 321.31934,260.997006 319.789607,260.596606 C318.259874,260.196206 316.80714,259.883072 315.431407,259.657206 C313.97354,259.410806 312.690207,259.149006 311.581407,258.871806 C310.472607,258.594606 309.610207,258.235272 308.994207,257.793806 C308.378207,257.352339 308.070207,256.782539 308.070207,256.084406 C308.070207,255.365739 308.357673,254.806206 308.932607,254.405806 C309.50754,254.005406 310.210807,253.717939 311.042407,253.543405 C311.874007,253.368872 312.67994,253.281605 313.460207,253.281605 C314.322607,253.281605 315.154207,253.409939 315.955007,253.666605 C316.755807,253.923272 317.418007,254.308272 317.941607,254.821606 C318.465207,255.334939 318.727007,256.002272 318.727007,256.823606 L318.727007,256.823606 L318.727007,257.193206 L328.121007,257.193206 L328.121007,257.193206 L328.121007,256.762006 C328.121007,254.523872 327.43314,252.609139 326.057407,251.017805 C324.681674,249.426472 322.885007,248.204739 320.667407,247.352605 C318.449807,246.500472 316.057674,246.074405 313.491007,246.074405 C310.80114,246.074405 308.33714,246.464539 306.099007,247.244805 C303.860873,248.025072 302.06934,249.174939 300.724407,250.694405 C299.379473,252.213872 298.707007,254.082406 298.707007,256.300006 C298.707007,257.963206 299.09714,259.374872 299.877407,260.535006 C300.657673,261.695139 301.694607,262.649939 302.988207,263.399406 C304.281807,264.148872 305.698607,264.749472 307.238607,265.201206 C308.778607,265.652939 310.298073,266.002006 311.797007,266.248406 C314.445807,266.700139 316.370807,267.151872 317.572007,267.603606 C318.773207,268.055339 319.373807,268.825339 319.373807,269.913606 C319.373807,270.591206 319.091474,271.150739 318.526807,271.592206 C317.96214,272.033673 317.243474,272.351939 316.370807,272.547006 C315.49814,272.742073 314.58954,272.839606 313.645007,272.839606 C311.838073,272.839606 310.405873,272.562406 309.348407,272.008006 C308.29094,271.453606 307.762207,270.580939 307.762207,269.390006 L307.762207,269.390006 L307.762207,268.958806 L298.275807,268.958806 L298.275807,268.958806 L298.275807,269.513206 C298.275807,271.279073 298.691607,272.824206 299.523207,274.148606 C300.354807,275.473006 301.48414,276.576673 302.911207,277.459606 C304.338273,278.342539 305.955273,279.009873 307.762207,279.461606 C309.56914,279.913339 311.44794,280.139206 313.398607,280.139206 Z" id="deliverees" fill="#00BCB3" fill-rule="nonzero"/>
        </g>
    </g>
</svg>