<svg id="Layer_1" data-name="Layer 1" xmlns="http://www.w3.org/2000/svg" viewBox="0 0 165.93 68.79"><defs><style>.cls-1{fill:#506654;}</style></defs><g id="pbEOkE.tif"><path class="cls-1" d="M18.54,14.71c-1.62-2-5.54-3.62-8.34-1.65-.59.41-1,.4-1.24.08s-.18-.63.4-1.16a9.29,9.29,0,0,1,6.41-2.6A6.74,6.74,0,0,1,18.4,10c.06-.2-.07-.29-.15-.38a8.72,8.72,0,0,0-2.39-2.3,4,4,0,0,0-2.52-.71c-.42,0-.88,0-1-.53s.37-.67.77-.78a7.87,7.87,0,0,1,4.8.07,5.55,5.55,0,0,1,3.12,2.53c.13.23.23.3.46.14A1.13,1.13,0,0,1,23,8.09c.13.11.24.24.39,0C24.72,5.68,26.91,4.92,29.52,5a8.07,8.07,0,0,1,2.06.39c.34.1.6.29.55.69s-.34.54-.7.54a6.17,6.17,0,0,0-2.18.18,5.91,5.91,0,0,0-3.34,3.31,14.18,14.18,0,0,1,1.93-.33,9.12,9.12,0,0,1,6.9,2.87.59.59,0,0,1,.14.83.6.6,0,0,1-.82.18,2.48,2.48,0,0,1-.37-.17c-2.19-1.45-4.38-1.12-6.55.05a6.39,6.39,0,0,0-1.53,1.15,19.26,19.26,0,0,1,2.83.42,13,13,0,0,1,9.87,12.67V51.34A13,13,0,0,1,26.9,64.1c-2.61.28-5.23.06-7.85.11a11.85,11.85,0,0,1-3.3-.41A13.11,13.11,0,0,1,6.09,52.89,13.69,13.69,0,0,1,6,51.2V27.65A13.06,13.06,0,0,1,17.57,14.82Zm3.87,9.39.21-.19c1.12-1.12,2.24-2.25,3.38-3.37.22-.22.17-.34,0-.53-1.12-1.1-2.23-2.22-3.33-3.34-.22-.23-.35-.22-.57,0-1.13,1.15-2.26,2.29-3.41,3.41-.28.27-.22.41,0,.64l3.4,3.19C22.18,24,22.24,24.1,22.41,24.1ZM35.9,38.64a3.32,3.32,0,0,0-.25-.27c-1.17-1.11-2.34-2.2-3.51-3.32-.2-.19-.31-.16-.49,0-1.1,1.11-2.2,2.22-3.31,3.31-.21.2-.21.31,0,.52,1.14,1.11,2.26,2.24,3.38,3.38.21.21.33.25.56,0,1.13-1.15,2.27-2.28,3.41-3.42ZM30.92,25c-.08-.09-.14-.17-.21-.24l-3.37-3.38c-.2-.21-.31-.16-.49,0q-1.68,1.7-3.37,3.38c-.18.17-.2.27,0,.45,1.17,1.09,2.34,2.2,3.51,3.3.17.16.28.17.46,0,1.08-1.1,2.17-2.18,3.26-3.28Zm4.77,31.72c0-.17-.13-.23-.22-.32-1.08-1.09-2.18-2.17-3.26-3.28-.23-.24-.35-.19-.56,0-1,1-2,2-3,3-.26.25-.2.38,0,.6,1.19,1.17,2.36,2.34,3.52,3.53.21.21.34.24.58,0A12.34,12.34,0,0,0,35.57,57ZM22.91,43.85a2.29,2.29,0,0,0-.23.21c-1,1-2.06,2.06-3.1,3.08-.16.17-.19.27,0,.45,1.16,1.14,2.32,2.29,3.46,3.46.21.22.33.17.52,0,1-1,2-2,3-3,.21-.21.21-.33,0-.53-1.15-1.13-2.28-2.28-3.42-3.42Zm-.48-17.92c-.16,0-.24.14-.33.24-1,1-2,2-3,3-.2.19-.23.3,0,.51q1.7,1.67,3.34,3.34c.2.21.31.23.52,0q1.54-1.58,3.12-3.12c.24-.24.2-.36,0-.56l-3.41-3.19Zm-8.76,8.69-.16.14c-1.06,1.06-2.12,2.13-3.19,3.18-.18.18-.11.28,0,.42l3.41,3.41c.17.18.28.15.44,0,1-1,2.05-2.07,3.09-3.09.19-.18.19-.29,0-.48C16.16,37.08,15,36,13.91,34.82A2.54,2.54,0,0,0,13.67,34.62Zm13.59-4.15a1.62,1.62,0,0,0-.19.17c-1.11,1.1-2.2,2.21-3.31,3.3-.19.18-.1.27,0,.4q1.61,1.59,3.2,3.2c.18.19.29.19.48,0q1.63-1.66,3.3-3.3c.2-.2.18-.31,0-.49L27.5,30.7Zm3.82,12.91-.16-.18c-1.16-1.16-2.33-2.32-3.48-3.5-.2-.19-.29-.12-.45,0l-3,3c-.17.18-.22.28,0,.48,1.16,1.14,2.31,2.3,3.45,3.45.16.16.27.22.45,0,1-1,2-2,3-3C31,43.58,31.08,43.52,31.08,43.38Zm4.36-13.85a1.93,1.93,0,0,0-.17-.21l-3.22-3.23c-.18-.18-.29-.16-.46,0Q30,27.74,28.33,29.36c-.22.21-.13.31,0,.48Q30,31.36,31.62,32.9c.19.18.3.19.49,0q1.55-1.57,3.11-3.13Zm-21.76,3.3a1.38,1.38,0,0,0,.17-.15L17,29.59c.17-.17.11-.26,0-.4-1.15-1.15-2.31-2.3-3.45-3.46-.17-.17-.26-.19-.44,0-1,1-2,2-3,3-.16.16-.2.26,0,.44l3.46,3.45A2.19,2.19,0,0,0,13.68,32.83Zm4.7,4.71.19-.16,3.09-3.08c.19-.19.09-.28,0-.41-1.14-1.14-2.28-2.27-3.41-3.42-.18-.18-.28-.15-.44,0-1,1-2,2-3,3-.21.21-.2.32,0,.52,1.13,1.11,2.24,2.23,3.35,3.34Zm3-12.54c-.05-.06-.11-.14-.18-.21l-3.51-3.31c-.16-.15-.28-.19-.46,0-1,1-2,2-2.94,2.94-.17.17-.2.26,0,.45,1.16,1.14,2.3,2.29,3.45,3.45.16.16.26.2.44,0l3.05-3.06C21.33,25.2,21.42,25.15,21.42,25Zm1,27.14-.18-.21c-1.16-1.16-2.33-2.32-3.48-3.49-.18-.18-.28-.16-.45,0-1,1-1.93,1.95-2.9,2.91-.16.16-.21.25,0,.44l3.49,3.49c.17.17.28.17.45,0,1-1,1.93-1.94,2.9-2.91C22.26,52.31,22.31,52.22,22.38,52.14ZM22,43l-.16-.2c-1.09-1.09-2.19-2.17-3.27-3.27-.16-.17-.25-.14-.4,0l-3.13,3.13c-.17.17-.17.27,0,.44,1.07,1.06,2.14,2.12,3.19,3.2.2.2.31.17.49,0l3-3C21.87,43.14,21.93,43.06,22,43Zm.89-.9.22-.2c1-1,2-2,3-3,.19-.19.15-.29,0-.45C25.07,37.35,24,36.29,23,35.21c-.2-.2-.31-.16-.48,0l-3,3c-.2.19-.18.3,0,.48,1.06,1,2.11,2.1,3.16,3.15A3,3,0,0,0,22.91,42.07ZM34.92,21l-.18-.27a12,12,0,0,0-3.57-3.19.35.35,0,0,0-.52.08c-.8.81-1.59,1.61-2.4,2.4-.23.22-.25.34,0,.57q1.67,1.63,3.31,3.3c.2.21.31.23.52,0,.86-.88,1.74-1.75,2.61-2.62A3.22,3.22,0,0,0,34.92,21ZM14.28,50.69a1.6,1.6,0,0,0,.19-.16l3-3c.19-.19.08-.28-.05-.4-1.06-1.07-2.13-2.13-3.19-3.21-.2-.2-.31-.16-.48,0-1,1-1.91,1.93-2.87,2.87-.19.19-.19.3,0,.48,1.06,1,2.11,2.11,3.16,3.16ZM31,52c0-.13-.09-.19-.16-.26-1-1-2-2-2.94-3-.2-.21-.32-.15-.49,0-1,1-2,2-3,3-.23.22-.23.35,0,.57.95.93,1.89,1.87,2.83,2.83.21.22.34.24.56,0,1-1,2-2,3-3ZM7.19,42.35c0,.32,0,.65,0,1a.61.61,0,0,0,.2.5L9.53,46c.16.16.26.21.45,0,1-1,1.95-2,2.93-2.94.17-.16.16-.26,0-.41q-1.73-1.71-3.44-3.45c-.16-.16-.26-.15-.41,0a10.07,10.07,0,0,1-1,1A2,2,0,0,0,7.19,42.35Zm.08-9a2.68,2.68,0,0,0,1.21,3.13A3,3,0,0,1,9,37c.19.24.32.25.55,0q1.48-1.53,3-3c.23-.23.21-.34,0-.56-1.06-1-2.12-2.08-3.15-3.16-.36-.38-.53-.36-.93,0C7.49,31.1,6.84,32,7.27,33.36ZM32,51.1a1.38,1.38,0,0,0,.17-.15l3.09-3.08c.18-.18.1-.28,0-.41l-2.94-2.94c-.16-.17-.27-.21-.45,0-1,1-2,2-3,3-.17.18-.17.29,0,.46,1,1,2,2,2.95,2.93Zm-5.31,5.32c-.07-.08-.13-.17-.2-.24-1-1-1.94-1.93-2.9-2.91-.21-.22-.33-.19-.53,0-.94.95-1.88,1.9-2.84,2.83-.22.22-.17.34,0,.53,1,1,1.92,1.91,2.87,2.87.21.22.33.19.53,0l2.83-2.84Zm-13.29-39-.2.11A12.23,12.23,0,0,0,10,20.16c-.17.2-.07.29.06.42,1,1,2,2,3,3,.15.16.25.21.44,0,1-1,1.95-2,2.94-2.95.17-.16.15-.26,0-.4l-2.85-2.67ZM26.67,62.91a11.81,11.81,0,0,0,4.55-1.54c.29-.17.13-.28,0-.41q-1.71-1.71-3.41-3.43c-.24-.24-.36-.19-.56,0-.92,1-1.86,1.88-2.8,2.8-.2.2-.24.32,0,.53.62.59,1.22,1.2,1.82,1.81C26.38,62.83,26.52,63,26.67,62.91Zm-8.5-6.55-.25-.27c-1.13-1.13-2.26-2.25-3.38-3.39-.2-.21-.31-.21-.52,0-.64.67-1.29,1.32-2,2-.19.18-.24.31,0,.53q1.74,1.71,3.45,3.45c.17.17.27.18.45,0,.66-.69,1.35-1.36,2-2C18,56.54,18.09,56.45,18.17,56.36ZM7.3,26.25c0,.13,0,.25.14.37.43.42.86.84,1.27,1.27.17.19.28.16.44,0,1-1,2-2,3-3,.18-.18.16-.28,0-.44-.95-.94-1.89-1.89-2.83-2.84-.19-.2-.28-.16-.41.06A11.94,11.94,0,0,0,7.3,26.25Zm6.09,25.34-.14-.18q-1.66-1.65-3.31-3.31c-.16-.16-.24-.09-.37,0q-1,1-2.07,2.07c-.18.18-.16.29,0,.46l3.2,3.2c.17.18.28.17.45,0,.68-.7,1.38-1.39,2.07-2.08ZM37.11,34.31c0-.83,0-1.67,0-2.51a1.36,1.36,0,0,0-.47-1.12c-.28-.27-.41-.21-.65,0-1,1-1.91,2-2.9,2.9-.32.3-.24.46,0,.71,1.11,1,2.2,2.06,3.3,3.08.12.12.22.36.44.26s.24-.34.24-.58C37.1,36.16,37.1,35.24,37.11,34.31ZM20,63a.77.77,0,0,0,.17-.11c.69-.69,1.37-1.38,2.07-2.06.16-.16.11-.25,0-.38-1-1-2-2-3-3-.18-.17-.29-.16-.46,0-.68.7-1.37,1.39-2.06,2.07-.17.16-.14.25,0,.4l2.9,2.9A.37.37,0,0,0,20,63ZM37.1,42.87c0-1,0-1.92,0-2.88a.42.42,0,0,0-.21-.43c-.19-.09-.27.1-.37.2l-3.38,3.37c-.17.18-.29.3,0,.53,1,1,2,2,2.95,2.93.07.08.18.25.28.13.31-.34.8-.54.78-1.13C37.08,44.68,37.1,43.77,37.1,42.87Zm-.85,12.67.29-.81a14.61,14.61,0,0,0,.58-4.56,1.58,1.58,0,0,0-.59-1.37c-.21-.17-.31-.24-.53,0-1,1-2,2-3,3-.2.2-.16.31,0,.48.83.82,1.65,1.64,2.46,2.47C35.75,55,36,55.21,36.25,55.54Zm.82-28.3a11.69,11.69,0,0,0-1.24-4.8c-.15-.29-.24-.36-.49-.09-.78.8-1.56,1.59-2.36,2.36-.25.24-.24.37,0,.6,1,.92,1.87,1.86,2.8,2.79.6.6.69.59,1.21-.09C37.19,27.75,37,27.48,37.07,27.24ZM14.82,59.73c-.06-.07-.11-.14-.17-.2-1.17-1.17-2.35-2.34-3.51-3.52-.16-.16-.27-.15-.42,0q-.68.7-1.38,1.38a.31.31,0,0,0,0,.48,12.17,12.17,0,0,0,3.6,3.4.32.32,0,0,0,.47-.06l1.27-1.28Zm-.25-42.89c.94.88,1.84,1.72,2.73,2.57.21.2.29,0,.4-.08.64-.64,1.28-1.29,1.92-1.92L21.07,16A13.79,13.79,0,0,0,14.57,16.84Zm8.82-5.11a3.82,3.82,0,0,0-.19-1.31c-.18-.57-.44-1.27-1-1.27s-.88.69-1.06,1.26a6.19,6.19,0,0,0,.33,4.07c.17.45.6.17.91.23a.39.39,0,0,0,.52-.27A8.11,8.11,0,0,0,23.39,11.73Zm6.32,5.1a12.8,12.8,0,0,0-6-.85L27,19.27c.14.14.24.07.34,0ZM13.79,10.9a9.68,9.68,0,0,1,6.32,3.64,8,8,0,0,1-.29-1.3A1.85,1.85,0,0,0,19,11.83,5.53,5.53,0,0,0,13.79,10.9Zm10.46,3.39a9.54,9.54,0,0,1,5.84-3,5.55,5.55,0,0,0-5.15.8.83.83,0,0,0-.38.57C24.49,13.17,24.37,13.67,24.25,14.29ZM8.51,56.51l1.37-1.38c.1-.1.19-.19,0-.33L7.24,52.12A11.4,11.4,0,0,0,8.51,56.51ZM18,62.79l-2.1-2.06c-.11-.12-.19-.09-.29,0L14.23,62A8.53,8.53,0,0,0,18,62.79ZM20,10c.08-.42.47-.65.27-1.09a4.5,4.5,0,0,0-3.53-2.56A11.82,11.82,0,0,1,20,10ZM7.22,48.59l.11.07,1.41-1.45c.08-.07.16-.14,0-.25L7.22,45.38Zm19.9-42a4.26,4.26,0,0,0-2.35,1.53,1.67,1.67,0,0,0-.25,2.23A8.16,8.16,0,0,1,27.12,6.55ZM24.83,62.94l-1.32-1.26c-.08-.07-.16-.21-.3-.08L21.81,63h2.67ZM7.22,39.18l.15.08c.29-.32.57-.64.86-.95.08-.09.19-.17.06-.29a8.47,8.47,0,0,0-1.07-1Zm0-9.42c.93-.83.93-.88,0-1.52A6,6,0,0,0,7.24,29.76Z"/></g><path class="cls-1" d="M53.91,25.47a7.65,7.65,0,0,1,2.9,2.91,8.89,8.89,0,0,1,0,8.44,7.7,7.7,0,0,1-2.91,2.92,8.38,8.38,0,0,1-8.16,0,7.7,7.7,0,0,1-2.91-2.92,8.86,8.86,0,0,1,0-8.44,7.81,7.81,0,0,1,2.91-2.91,8.49,8.49,0,0,1,8.18,0Zm-7.12,3.77a4.83,4.83,0,0,0-1.11,3.36,4.83,4.83,0,0,0,1.11,3.34,4.27,4.27,0,0,0,6,0,4.74,4.74,0,0,0,1.13-3.34,4.85,4.85,0,0,0-1.11-3.35,4.31,4.31,0,0,0-6,0Z"/><path class="cls-1" d="M65.48,37.68h5.15v3h-9v-16h3.86Z"/><path class="cls-1" d="M77.86,27.74v3.34h5.4V34h-5.4v3.54h6.08v3.1H74v-16h9.94v3.07Zm4.36-6.3-5.44,2.33V21.15l5.44-2.62Z"/><path class="cls-1" d="M97.67,35v5.6H93.81v-16h6.25a6.09,6.09,0,0,1,4.34,1.41,5,5,0,0,1,1.49,3.81,5.17,5.17,0,0,1-.67,2.65,4.55,4.55,0,0,1-2,1.83,7.06,7.06,0,0,1-3.19.67ZM102,29.89c0-1.4-.78-2.1-2.33-2.1h-2v4.15h2C101.18,31.94,102,31.26,102,29.89Z"/><path class="cls-1" d="M121.05,25.47A7.67,7.67,0,0,1,124,28.38a8.89,8.89,0,0,1,0,8.44A7.65,7.65,0,0,1,121,39.74a8.36,8.36,0,0,1-8.15,0A7.65,7.65,0,0,1,110,36.82a8.86,8.86,0,0,1,0-8.44,7.77,7.77,0,0,1,2.92-2.91,8.47,8.47,0,0,1,8.17,0Zm-7.11,3.77a4.83,4.83,0,0,0-1.12,3.36,4.83,4.83,0,0,0,1.12,3.34,4.27,4.27,0,0,0,6,0,4.79,4.79,0,0,0,1.13-3.34A4.81,4.81,0,0,0,120,29.25a4.3,4.3,0,0,0-6,0Z"/><path class="cls-1" d="M136.29,32.48l6.43,8.16h-4.67l-5.42-7.16v7.16h-3.86v-16h3.86v7l5.46-7h4.63Z"/><path class="cls-1" d="M149.79,27.74v3.34h5.4V34h-5.4v3.54h6.08v3.1h-9.94v-16h9.94v3.07Zm4.36-6.3-5.44,2.33V21.15l5.44-2.62Z"/><path class="cls-1" d="M46.84,45.89v4.24h-.69v-1.9h-2v1.9h-.68V45.89h.68v1.78h2V45.89Z"/><path class="cls-1" d="M51,49.21H49.23l-.32.92h-.74L49.73,46h.79l1.55,4.17h-.73Zm-.19-.53-.71-2-.7,2Z"/><path class="cls-1" d="M58.77,45.89l-1.06,4.24h-.84L56,46.85l-.89,3.28h-.84l-1.06-4.24h.75l.73,3.45.93-3.45h.76l.93,3.45L58,45.89Z"/><path class="cls-1" d="M62.73,49.21H60.94l-.32.92h-.73L61.45,46h.78l1.56,4.17h-.74Zm-.19-.53-.7-2-.71,2Z"/><path class="cls-1" d="M65.8,45.89v4.24h-.68V45.89Z"/><path class="cls-1" d="M68.14,45.89v4.24h-.69V45.89Z"/><path class="cls-1" d="M72.31,49.21H70.52l-.32.92h-.73L71,46h.78l1.56,4.17h-.73Zm-.19-.53-.7-2-.7,2Z"/><path class="cls-1" d="M78.13,50.13h-.69L75.38,47v3.13H74.7V45.9h.68L77.44,49V45.9h.69Z"/><path class="cls-1" d="M82.69,48.49v1.64H82V45.89h1.44a1.54,1.54,0,0,1,1.1.35,1.24,1.24,0,0,1,.37,1,1.18,1.18,0,0,1-.38.94,1.55,1.55,0,0,1-1.09.35Zm1.53-1.29a.69.69,0,0,0-.21-.55.88.88,0,0,0-.64-.19h-.68v1.47h.68C83.93,47.93,84.22,47.68,84.22,47.2Z"/><path class="cls-1" d="M89.36,46.12a1.92,1.92,0,0,1,.75.77,2.44,2.44,0,0,1,0,2.23,2,2,0,0,1-.75.78,2.12,2.12,0,0,1-1.06.28,2,2,0,0,1-1.83-1.06,2.44,2.44,0,0,1,0-2.23,2,2,0,0,1,1.83-1A2,2,0,0,1,89.36,46.12Zm-1.79.54a1.23,1.23,0,0,0-.49.54,1.73,1.73,0,0,0-.18.81,1.79,1.79,0,0,0,.18.81,1.2,1.2,0,0,0,.49.53,1.44,1.44,0,0,0,.73.19,1.42,1.42,0,0,0,.71-.19,1.2,1.2,0,0,0,.49-.53,1.79,1.79,0,0,0,.18-.81,1.73,1.73,0,0,0-.18-.81,1.23,1.23,0,0,0-.49-.54,1.41,1.41,0,0,0-.71-.18A1.44,1.44,0,0,0,87.57,46.66Z"/><path class="cls-1" d="M93.22,48l1.87,2.14h-.84l-1.67-2v2H91.9V45.89h.68v1.94l1.68-1.94h.83Z"/><path class="cls-1" d="M97.1,46.45v1.28h1.56v.53H97.1v1.31h1.74v.56H96.42V45.89h2.42v.56ZM98.59,45l-1.33.68v-.48l1.33-.74Z"/><path class="cls-1" d="M105.39,48.31a1.07,1.07,0,0,1,.23.67,1,1,0,0,1-.35.84,1.51,1.51,0,0,1-1,.31h-1.68V45.89h1.65a1.49,1.49,0,0,1,1,.29,1,1,0,0,1,.34.78,1,1,0,0,1-.21.65,1.05,1.05,0,0,1-.55.34A1.06,1.06,0,0,1,105.39,48.31Zm-2.15-.59h.85a.82.82,0,0,0,.55-.17.62.62,0,0,0,.19-.47.61.61,0,0,0-.19-.46.87.87,0,0,0-.58-.17h-.82Zm1.47,1.67a.61.61,0,0,0,.21-.5.61.61,0,0,0-.21-.49.94.94,0,0,0-.61-.18h-.86v1.35h.87A.9.9,0,0,0,104.71,49.39Z"/><path class="cls-1" d="M110.12,46.12a2.06,2.06,0,0,1,.75.77,2.44,2.44,0,0,1,0,2.23,2,2,0,0,1-1.82,1.06A2.13,2.13,0,0,1,108,49.9a2,2,0,0,1-.75-.78,2.36,2.36,0,0,1,0-2.23,1.92,1.92,0,0,1,.75-.77,2,2,0,0,1,1.07-.28A2.06,2.06,0,0,1,110.12,46.12Zm-1.8.54a1.29,1.29,0,0,0-.49.54,1.73,1.73,0,0,0-.18.81,1.79,1.79,0,0,0,.18.81,1.26,1.26,0,0,0,.49.53,1.5,1.5,0,0,0,.73.19,1.43,1.43,0,0,0,.72-.19,1.26,1.26,0,0,0,.49-.53,1.79,1.79,0,0,0,.18-.81,1.73,1.73,0,0,0-.18-.81,1.29,1.29,0,0,0-.49-.54,1.43,1.43,0,0,0-.72-.18A1.49,1.49,0,0,0,108.32,46.66Z"/><path class="cls-1" d="M118,45.89,117,50.13h-.84l-.9-3.28-.89,3.28h-.84l-1.06-4.24h.75l.74,3.45.93-3.45h.75l.93,3.45.73-3.45Z"/><path class="cls-1" d="M120.13,49.6h1.47v.53h-2.15V45.89h.68Z"/><path class="cls-1" d="M125.59,49.58a1.13,1.13,0,0,1-.46.43,1.54,1.54,0,0,1-.75.16,1.86,1.86,0,0,1-.77-.15,1.39,1.39,0,0,1-.55-.43,1.18,1.18,0,0,1-.23-.64h.73a.78.78,0,0,0,.23.48.8.8,0,0,0,.56.2.65.65,0,0,0,.48-.17A.56.56,0,0,0,125,49a.58.58,0,0,0-.12-.38,1,1,0,0,0-.31-.23,5.26,5.26,0,0,0-.51-.19,6,6,0,0,1-.65-.25,1.24,1.24,0,0,1-.42-.37,1,1,0,0,1-.18-.63,1.08,1.08,0,0,1,.17-.6,1.13,1.13,0,0,1,.48-.4,1.81,1.81,0,0,1,.72-.14,1.56,1.56,0,0,1,1,.31,1.22,1.22,0,0,1,.44.82h-.74a.73.73,0,0,0-.23-.41.68.68,0,0,0-.5-.17.68.68,0,0,0-.46.14.6.6,0,0,0,0,.78.73.73,0,0,0,.3.22,4.16,4.16,0,0,0,.5.19,4.54,4.54,0,0,1,.66.26,1.27,1.27,0,0,1,.43.37,1.09,1.09,0,0,1,.18.65A1.17,1.17,0,0,1,125.59,49.58Z"/><path class="cls-1" d="M132.65,46.25a1.89,1.89,0,0,1,.7,1.07h-.73a1.36,1.36,0,0,0-.47-.61,1.39,1.39,0,0,0-.8-.22,1.28,1.28,0,0,0-.68.18,1.35,1.35,0,0,0-.47.53A1.86,1.86,0,0,0,130,48a1.81,1.81,0,0,0,.17.8,1.28,1.28,0,0,0,.47.53,1.2,1.2,0,0,0,.68.19,1.4,1.4,0,0,0,.8-.23,1.28,1.28,0,0,0,.47-.6h.73a1.89,1.89,0,0,1-.7,1.07,2.07,2.07,0,0,1-1.29.4,2,2,0,0,1-1.06-.28,1.82,1.82,0,0,1-.72-.76,2.63,2.63,0,0,1,0-2.24,1.88,1.88,0,0,1,.72-.76,2,2,0,0,1,1.06-.28A2,2,0,0,1,132.65,46.25Z"/><path class="cls-1" d="M135.51,45.89v2.52a1.22,1.22,0,0,0,.25.84,1,1,0,0,0,1.39,0,1.22,1.22,0,0,0,.25-.84V45.89h.68v2.52a1.75,1.75,0,0,1-.45,1.31,1.77,1.77,0,0,1-2.36,0,1.75,1.75,0,0,1-.44-1.31V45.89Z"/><path class="cls-1" d="M140.39,45.89v4.24h-.69V45.89Z"/><path class="cls-1" d="M144.67,49.58a1.07,1.07,0,0,1-.46.43,1.54,1.54,0,0,1-.75.16,1.92,1.92,0,0,1-.77-.15,1.29,1.29,0,0,1-.54-.43,1.19,1.19,0,0,1-.24-.64h.73a.74.74,0,0,0,.24.48.77.77,0,0,0,.55.2.69.69,0,0,0,.49-.17.6.6,0,0,0,.17-.43.53.53,0,0,0-.13-.38.81.81,0,0,0-.31-.23,3.8,3.8,0,0,0-.51-.19,5.75,5.75,0,0,1-.64-.25,1.27,1.27,0,0,1-.43-.37,1.2,1.2,0,0,1,0-1.23,1.13,1.13,0,0,1,.48-.4,1.78,1.78,0,0,1,.72-.14,1.58,1.58,0,0,1,1,.31,1.17,1.17,0,0,1,.43.82H144a.72.72,0,0,0-.22-.41.68.68,0,0,0-.5-.17.71.71,0,0,0-.47.14.55.55,0,0,0-.17.43.51.51,0,0,0,.12.35.73.73,0,0,0,.3.22,4.94,4.94,0,0,0,.5.19,4.54,4.54,0,0,1,.66.26,1.18,1.18,0,0,1,.43.37,1.09,1.09,0,0,1,.18.65A1.17,1.17,0,0,1,144.67,49.58Z"/><path class="cls-1" d="M147,45.89v4.24h-.68V45.89Z"/><path class="cls-1" d="M152.09,50.13h-.69L149.34,47v3.13h-.68V45.9h.68L151.4,49V45.9h.69Z"/><path class="cls-1" d="M154.42,46.45v1.28H156v.53h-1.56v1.31h1.74v.56h-2.42V45.89h2.42v.56Z"/></svg>