<svg id="Layer_1" data-name="Layer 1" xmlns="http://www.w3.org/2000/svg" xmlns:xlink="http://www.w3.org/1999/xlink" viewBox="0 0 137.8 146.34"><defs><style>.cls-1,.cls-2{fill:#fff;}.cls-1{fill-rule:evenodd;}.cls-3{mask:url(#mask);}.cls-4{mask:url(#mask-2);}</style><mask id="mask" x="0.42" y="64.36" width="8.58" height="17.59" maskUnits="userSpaceOnUse"><g id="mask-4"><polygon id="path-3" class="cls-1" points="0.42 64.36 9 64.36 9 81.94 0.42 81.94 0.42 64.36"/></g></mask><mask id="mask-2" x="125.05" y="63.88" width="8.58" height="17.59" maskUnits="userSpaceOnUse"><g id="mask-4-2" data-name="mask-4"><polygon id="path-3-2" data-name="path-3" class="cls-1" points="125.05 63.88 133.63 63.88 133.63 81.46 125.05 81.46 125.05 63.88"/></g></mask></defs><g id="pbEOkE.tif"><path class="cls-2" d="M62.88,48.13c-2.26-2.82-7.74-5.06-11.66-2.31-.82.57-1.38.57-1.73.11s-.26-.88.56-1.62a13,13,0,0,1,9-3.63,9.25,9.25,0,0,1,3.68.85c.08-.28-.11-.4-.21-.54a12.19,12.19,0,0,0-3.35-3.21,5.49,5.49,0,0,0-3.52-1c-.58.05-1.23,0-1.34-.75s.52-.93,1.08-1.08a11.06,11.06,0,0,1,6.71.09,7.86,7.86,0,0,1,4.37,3.54c.18.32.31.42.64.19a1.56,1.56,0,0,1,2,.1c.19.14.34.32.55,0,1.92-3.34,5-4.42,8.62-4.28a11.35,11.35,0,0,1,2.89.54c.48.15.83.41.76,1a.85.85,0,0,1-1,.75,7.09,7.09,0,0,0-7.72,4.88,24.2,24.2,0,0,1,2.69-.47,12.8,12.8,0,0,1,9.66,4,.84.84,0,0,1,.19,1.16.82.82,0,0,1-1.14.25,3.43,3.43,0,0,1-.52-.23c-3.07-2-6.12-1.57-9.16.06a8.73,8.73,0,0,0-2.13,1.61,27.19,27.19,0,0,1,4,.59A18.21,18.21,0,0,1,90.52,66.41q0,16.47,0,32.93a18.21,18.21,0,0,1-16,17.85c-3.64.39-7.32.08-11,.15a17.08,17.08,0,0,1-4.61-.57,18.33,18.33,0,0,1-13.5-15.26,18.7,18.7,0,0,1-.15-2.36V66.21a18.26,18.26,0,0,1,16.2-17.93Zm5.41,13.13a3.22,3.22,0,0,0,.29-.26c1.58-1.57,3.14-3.16,4.73-4.71.31-.31.24-.48,0-.75q-2.36-2.31-4.67-4.67c-.31-.32-.49-.31-.79,0-1.58,1.61-3.16,3.2-4.77,4.77-.39.38-.31.58,0,.89,1.59,1.48,3.17,3,4.76,4.47C68,61.11,68.06,61.26,68.29,61.26ZM87.16,81.59a4.38,4.38,0,0,0-.35-.38c-1.64-1.55-3.28-3.08-4.9-4.64-.29-.27-.45-.22-.7,0q-2.29,2.33-4.62,4.62c-.29.29-.29.44,0,.73q2.39,2.34,4.72,4.72c.3.3.46.36.79,0,1.57-1.61,3.18-3.19,4.77-4.78C87,81.81,87.06,81.7,87.16,81.59Zm-7-19.07c-.11-.13-.19-.24-.29-.34-1.57-1.57-3.15-3.14-4.71-4.73-.28-.29-.44-.22-.68,0-1.57,1.59-3.14,3.16-4.73,4.72-.24.24-.27.39,0,.63,1.65,1.54,3.28,3.08,4.92,4.63.23.22.39.22.64,0,1.51-1.54,3-3.06,4.56-4.58Zm6.68,44.35c0-.23-.19-.33-.31-.45-1.52-1.53-3.06-3-4.56-4.58-.33-.34-.49-.28-.78,0-1.38,1.4-2.76,2.8-4.17,4.16-.36.35-.29.53,0,.84,1.65,1.63,3.3,3.27,4.92,4.92.29.3.47.35.81.06a17.22,17.22,0,0,0,3.89-4.65ZM69,88.87c-.12.1-.23.19-.33.29-1.45,1.44-2.88,2.89-4.33,4.32-.23.23-.27.37,0,.62q2.43,2.4,4.83,4.83c.3.32.47.24.73,0,1.4-1.42,2.8-2.82,4.22-4.22.29-.28.29-.45,0-.74-1.61-1.58-3.19-3.18-4.78-4.77Zm-.68-25.06c-.22,0-.33.21-.46.34-1.39,1.38-2.77,2.78-4.17,4.15-.28.28-.32.43,0,.72,1.57,1.55,3.13,3.1,4.67,4.67.28.29.43.31.72,0,1.44-1.47,2.89-2.93,4.37-4.36.33-.33.27-.5,0-.78-1.6-1.48-3.18-3-4.76-4.46ZM56.08,76l-.23.2c-1.48,1.48-3,3-4.47,4.46-.25.24-.14.38,0,.57C53,82.78,54.61,84.36,56.19,86c.25.26.4.22.63,0q2.15-2.17,4.31-4.32c.27-.26.27-.41,0-.67-1.58-1.56-3.15-3.14-4.72-4.71C56.31,76.15,56.2,76.06,56.08,76Zm19-5.79a3.23,3.23,0,0,0-.27.23c-1.54,1.54-3.07,3.09-4.62,4.61-.26.26-.13.39,0,.57,1.49,1.48,3,3,4.47,4.47.26.27.41.27.67,0q2.3-2.33,4.62-4.62c.28-.28.24-.43,0-.68-1.52-1.41-3-2.84-4.56-4.26Zm5.35,18L80.2,88c-1.63-1.63-3.26-3.25-4.87-4.89-.28-.28-.41-.18-.63,0q-2.07,2.1-4.16,4.17c-.25.24-.31.39,0,.67,1.63,1.6,3.23,3.21,4.83,4.83.23.22.37.3.64,0,1.39-1.41,2.8-2.81,4.21-4.22C80.29,88.49,80.42,88.41,80.42,88.21Zm6.09-19.36c-.09-.11-.15-.21-.23-.29L81.77,64c-.25-.25-.4-.22-.63,0-1.52,1.53-3,3.06-4.57,4.57-.3.29-.19.43.06.66,1.52,1.42,3,2.84,4.54,4.28.27.25.42.26.69,0,1.44-1.47,2.9-2.92,4.35-4.37C86.31,69.09,86.4,69,86.51,68.85ZM56.09,73.47l.24-.21c1.44-1.44,2.88-2.89,4.33-4.32.25-.24.16-.37,0-.57-1.61-1.6-3.23-3.21-4.82-4.83-.24-.24-.37-.27-.63,0-1.39,1.41-2.8,2.82-4.21,4.22-.23.22-.28.36,0,.62,1.62,1.59,3.23,3.21,4.84,4.82C55.87,73.29,56,73.37,56.09,73.47Zm6.57,6.58a3.23,3.23,0,0,0,.27-.23c1.44-1.43,2.87-2.88,4.32-4.31.27-.26.12-.38-.06-.56-1.59-1.59-3.19-3.18-4.77-4.78-.25-.26-.39-.21-.62,0q-2.05,2.1-4.16,4.16c-.3.29-.28.45,0,.73,1.57,1.54,3.12,3.1,4.67,4.66Zm4.26-17.54a3.2,3.2,0,0,0-.26-.28L61.75,57.6c-.23-.22-.39-.27-.65,0C59.75,59,58.37,60.34,57,61.71c-.23.23-.27.36,0,.62,1.62,1.59,3.23,3.21,4.82,4.82.23.23.37.28.63,0,1.4-1.43,2.83-2.85,4.25-4.27C66.78,62.8,66.92,62.73,66.92,62.51Zm1.33,37.95-.25-.28c-1.63-1.63-3.26-3.25-4.87-4.88-.25-.26-.39-.23-.62,0-1.34,1.36-2.7,2.71-4.06,4.06-.22.22-.29.36,0,.62,1.64,1.61,3.26,3.24,4.87,4.87.24.25.39.25.63,0,1.34-1.37,2.7-2.71,4.05-4.07A3.1,3.1,0,0,0,68.25,100.46Zm-.51-12.82a2.88,2.88,0,0,0-.22-.27c-1.52-1.53-3-3.05-4.56-4.58-.24-.24-.36-.19-.57,0-1.45,1.46-2.9,2.92-4.37,4.36-.24.24-.24.38,0,.63q2.25,2.22,4.46,4.47c.28.28.43.23.68,0C64.58,90.82,66,89.4,67.43,88ZM69,86.38c.11-.1.22-.18.32-.28,1.4-1.4,2.8-2.82,4.22-4.21.26-.26.21-.39,0-.62-1.49-1.48-3-3-4.47-4.48-.27-.28-.42-.22-.66,0q-2.07,2.1-4.17,4.16c-.28.27-.25.42,0,.67,1.49,1.47,3,2.95,4.43,4.42ZM85.79,56.9l-.25-.38a17,17,0,0,0-5-4.47.51.51,0,0,0-.73.12c-1.11,1.13-2.22,2.26-3.36,3.36-.31.3-.33.47,0,.79,1.56,1.52,3.1,3.07,4.63,4.62.28.29.44.31.74,0,1.2-1.23,2.43-2.44,3.65-3.67C85.57,57.17,85.67,57,85.79,56.9ZM56.92,98.44a2.15,2.15,0,0,0,.28-.23c1.39-1.38,2.77-2.78,4.17-4.16.27-.26.12-.39-.06-.57-1.49-1.49-3-3-4.47-4.48-.28-.28-.42-.22-.67,0-1.33,1.35-2.66,2.69-4,4-.27.27-.27.42,0,.68,1.48,1.46,3,2.94,4.43,4.41Zm23.41,1.89a.48.48,0,0,0-.23-.37c-1.36-1.38-2.74-2.74-4.1-4.12-.28-.29-.44-.21-.69,0-1.39,1.41-2.79,2.82-4.21,4.21-.32.31-.32.48,0,.79,1.34,1.3,2.65,2.62,4,4,.3.3.47.34.79,0,1.39-1.42,2.8-2.82,4.2-4.22ZM47,86.78c0,.45,0,.9,0,1.36a.89.89,0,0,0,.28.7c1,1,2,2,3,3,.22.22.37.29.63,0q2-2.09,4.11-4.12c.22-.22.21-.35,0-.57C53.4,85.58,51.8,84,50.2,82.36c-.23-.23-.37-.21-.57,0a11.9,11.9,0,0,1-1.38,1.37A2.82,2.82,0,0,0,47,86.78Zm.11-12.57c-.62,1.91.25,3.25,1.69,4.37a4.34,4.34,0,0,1,.71.71c.27.33.45.35.77,0,1.39-1.42,2.79-2.83,4.21-4.21.32-.32.3-.48,0-.78-1.49-1.45-3-2.91-4.4-4.42-.51-.53-.74-.51-1.31,0C47.43,71,46.52,72.31,47.13,74.21ZM81.64,99a2.54,2.54,0,0,0,.24-.2l4.31-4.31c.26-.24.15-.38,0-.57Q84.08,91.87,82,89.8c-.23-.23-.38-.28-.64,0Q79.32,91.91,77.19,94c-.24.25-.24.4,0,.64,1.38,1.36,2.75,2.74,4.12,4.1A3,3,0,0,0,81.64,99Zm-7.43,7.45a3.22,3.22,0,0,0-.28-.33c-1.35-1.36-2.72-2.71-4.05-4.08-.3-.3-.47-.26-.75,0-1.31,1.33-2.62,2.66-4,4-.31.3-.25.47,0,.74,1.34,1.33,2.68,2.66,4,4,.3.3.47.25.74,0,1.31-1.33,2.64-2.64,4-4ZM55.63,51.9l-.28.14a16.85,16.85,0,0,0-4.44,3.71c-.23.28-.09.41.09.58l4.16,4.17c.22.23.36.29.62,0q2-2.09,4.11-4.12c.23-.23.21-.36,0-.57-1.33-1.23-2.65-2.48-4-3.73Zm18.62,63.62a16.55,16.55,0,0,0,6.36-2.15c.41-.24.19-.39,0-.58-1.59-1.59-3.19-3.18-4.76-4.79-.34-.34-.51-.26-.79,0q-1.93,2-3.92,3.92c-.27.27-.34.43,0,.73.87.83,1.7,1.69,2.55,2.54C73.85,115.41,74,115.59,74.25,115.52Zm-11.89-9.15c-.13-.14-.23-.27-.35-.39-1.57-1.57-3.15-3.14-4.71-4.73-.29-.29-.45-.29-.73,0-.9.93-1.81,1.84-2.74,2.75-.27.26-.35.43,0,.74,1.62,1.59,3.22,3.2,4.82,4.82.24.24.38.25.62,0,.94-1,1.89-1.9,2.84-2.85A3.39,3.39,0,0,0,62.36,106.37ZM47.17,64.26c-.07.19,0,.36.2.52.59.59,1.19,1.17,1.77,1.78.24.26.39.23.62,0,1.39-1.42,2.8-2.82,4.21-4.22.26-.24.24-.38,0-.62q-2-2-4-4c-.27-.27-.4-.22-.58.08A16.59,16.59,0,0,0,47.17,64.26ZM55.68,99.7a3.11,3.11,0,0,0-.2-.25c-1.54-1.54-3.09-3.08-4.62-4.63-.22-.23-.34-.13-.51,0-1,1-1.92,1.94-2.9,2.9-.26.24-.23.4,0,.63q2.25,2.23,4.47,4.48c.25.25.4.24.63,0l2.9-2.9ZM88.84,75.54c0-1.17,0-2.35,0-3.52a1.9,1.9,0,0,0-.65-1.56c-.39-.38-.58-.29-.91,0-1.34,1.37-2.68,2.73-4.06,4-.45.43-.33.65.05,1,1.55,1.42,3.07,2.88,4.6,4.31.18.16.32.5.63.36s.33-.48.32-.81ZM65,115.62a1.23,1.23,0,0,0,.24-.15l2.89-2.89c.22-.21.16-.35,0-.52-1.39-1.39-2.78-2.77-4.16-4.16-.24-.25-.4-.24-.64,0-.95,1-1.91,1.94-2.89,2.89-.23.23-.19.36,0,.57q2,2,4.06,4.06A.52.52,0,0,0,65,115.62ZM88.84,87.5v-4a.59.59,0,0,0-.29-.61c-.26-.12-.37.15-.51.29-1.58,1.56-3.14,3.14-4.72,4.71-.25.24-.41.41-.07.74,1.38,1.35,2.74,2.73,4.11,4.1.11.11.25.34.4.17.43-.47,1.12-.75,1.09-1.58C88.81,90,88.84,88.77,88.84,87.5Zm-1.19,17.72.4-1.14a20.47,20.47,0,0,0,.82-6.37A2.25,2.25,0,0,0,88,95.79c-.29-.24-.44-.33-.74,0-1.37,1.4-2.76,2.79-4.15,4.16-.29.28-.23.43,0,.68q1.74,1.71,3.45,3.45C87,104.39,87.25,104.76,87.65,105.22ZM88.8,65.64a16.24,16.24,0,0,0-1.75-6.7c-.21-.41-.33-.5-.68-.13q-1.62,1.68-3.3,3.3c-.35.33-.33.52,0,.84,1.32,1.29,2.61,2.6,3.91,3.9.84.85,1,.83,1.69-.13C89,66.36,88.76,66,88.8,65.64ZM57.68,111.08l-.23-.28-4.92-4.93c-.22-.22-.37-.21-.58,0-.64.65-1.28,1.3-1.93,1.93a.44.44,0,0,0-.06.67,17.1,17.1,0,0,0,5,4.74.44.44,0,0,0,.67-.08c.58-.6,1.18-1.19,1.77-1.78A3.53,3.53,0,0,0,57.68,111.08Zm-.34-60c1.31,1.23,2.57,2.4,3.81,3.59.29.28.4,0,.56-.12l2.68-2.68,2-2C63.23,49.77,60.27,49.8,57.34,51.11ZM69.66,44a5.48,5.48,0,0,0-.26-1.85c-.26-.79-.62-1.77-1.44-1.76s-1.23,1-1.48,1.76a8.63,8.63,0,0,0,.46,5.69c.24.63.84.23,1.27.32a.55.55,0,0,0,.73-.38A11.33,11.33,0,0,0,69.66,44Zm8.85,7.13a17.89,17.89,0,0,0-8.44-1.19c1.59,1.59,3.09,3.09,4.58,4.6.2.19.32.1.48,0C76.22,53.36,77.33,52.27,78.51,51.1ZM56.24,42.8a13.58,13.58,0,0,1,8.85,5.09,10.31,10.31,0,0,1-.42-1.82,2.55,2.55,0,0,0-1.09-2A7.74,7.74,0,0,0,56.24,42.8Zm14.63,4.74A13.33,13.33,0,0,1,79,43.36a7.79,7.79,0,0,0-7.2,1.11,1.21,1.21,0,0,0-.53.81C71.2,46,71,46.68,70.87,47.54Zm-22,59,1.91-1.93c.14-.14.27-.27.06-.47l-3.74-3.74A16.11,16.11,0,0,0,48.86,106.58Zm13.2,8.77c-1-1-2-1.91-2.93-2.88-.17-.16-.27-.12-.41,0l-1.86,1.71A11.91,11.91,0,0,0,62.06,115.35Zm2.79-73.84c.12-.58.66-.9.38-1.52a6.25,6.25,0,0,0-4.93-3.58A16.68,16.68,0,0,1,64.85,41.51Zm-17.8,54,.15.1c.67-.67,1.33-1.35,2-2,.1-.11.21-.21.06-.36L47.05,91ZM74.88,36.72a5.92,5.92,0,0,0-3.29,2.14c-.73,1-1.2,1.94-.34,3.12A11.41,11.41,0,0,1,74.88,36.72Zm-3.2,78.85-1.85-1.76c-.11-.11-.22-.3-.41-.12-.62.6-1.23,1.21-2,2h3.73C71.28,115.64,71.37,115.61,71.68,115.57ZM47.06,82.34l.2.11,1.21-1.32c.11-.13.27-.24.08-.41a10.4,10.4,0,0,0-1.49-1.37Zm0-13.17c1.31-1.16,1.31-1.23,0-2.13A8.94,8.94,0,0,0,47.08,69.17Z"/></g><path class="cls-2" d="M11.12,29.47a6.87,6.87,0,0,1,3.62-.41,7.42,7.42,0,0,1,3.51,1.58,7.33,7.33,0,0,1,2.34,3.06A6.8,6.8,0,0,1,21,37.34,7.5,7.5,0,0,1,16.54,43a6.92,6.92,0,0,1-3.64.41,7.41,7.41,0,0,1-3.52-1.58,7.38,7.38,0,0,1-2.33-3.06,6.81,6.81,0,0,1-.42-3.62,7.18,7.18,0,0,1,1.51-3.41A7.28,7.28,0,0,1,11.12,29.47Zm-1.29,7a4.23,4.23,0,0,0,1.71,2.62,4.3,4.3,0,0,0,2.94,1.07A3.48,3.48,0,0,0,17,38.76,3.42,3.42,0,0,0,17.79,36a4.23,4.23,0,0,0-1.7-2.62,4.22,4.22,0,0,0-2.94-1.06,3.42,3.42,0,0,0-2.52,1.41A3.42,3.42,0,0,0,9.83,36.48Z"/><path class="cls-2" d="M30.67,26.36l3.72-2.64,1.51,2.14-6.51,4.61L21.21,18.94,24,17Z"/><path class="cls-2" d="M41.12,10.69l1.06,2.76,4.46-1.72.93,2.4-4.46,1.73,1.14,2.93,5-1.94,1,2.55-8.2,3.18L36.94,9.39l8.21-3.18,1,2.54ZM42.7,4.1,39,7.76l-.84-2.17,3.66-3.9Z"/><path class="cls-2" d="M70.64,11.92l-.27,5L67,16.69l.75-14.12,5.53.29A5.37,5.37,0,0,1,77,4.32a4.41,4.41,0,0,1,1.14,3.43,4.7,4.7,0,0,1-.72,2.32,4.06,4.06,0,0,1-1.83,1.52,6.16,6.16,0,0,1-2.85.44Zm4-4.35c.07-1.24-.58-1.9-2-2L71,5.51l-.2,3.67,1.74.09C73.89,9.35,74.61,8.78,74.67,7.57Z"/><path class="cls-2" d="M98.84,9.61a6.77,6.77,0,0,1,1.5,3.32,7.48,7.48,0,0,1-.44,3.82,7.39,7.39,0,0,1-2.21,3.16,6.75,6.75,0,0,1-3.33,1.51,7.41,7.41,0,0,1-6.75-2.55,6.76,6.76,0,0,1-1.5-3.33,7.28,7.28,0,0,1,.43-3.83,7.37,7.37,0,0,1,2.2-3.16,7,7,0,0,1,3.33-1.5,7.19,7.19,0,0,1,3.71.4A7.27,7.27,0,0,1,98.84,9.61Zm-7.07.9a4.27,4.27,0,0,0-2,2.42,4.35,4.35,0,0,0-.12,3.12,3.78,3.78,0,0,0,5,1.89,4.26,4.26,0,0,0,2-2.42,4.24,4.24,0,0,0,.12-3.12,3.8,3.8,0,0,0-5-1.89Z"/><path class="cls-2" d="M113.17,25.72l-.1,9.2-3.22-2.6.24-7.95-4,4.93-2.66-2.15,8.88-11L115,18.3l-3.9,4.84,7.67-1.8L122,23.92Z"/><path class="cls-2" d="M128.73,36.29,126.31,38l2.76,3.91L127,43.38l-2.76-3.9-2.56,1.8,3.09,4.4-2.24,1.58-5.06-7.19L129,31.92l5.06,7.2-2.22,1.56Zm6.79-.06-4.46-2.75L133,32.14l4.68,2.6Z"/><g id="Group-20"><g class="cls-3"><path id="Fill-18" class="cls-1" d="M7.48,71.12a8,8,0,0,0-2.76-5.57c-.11-.1-.15-.07-.25,0a12.63,12.63,0,0,0-1,1.11,7,7,0,0,0-1,7.46,13.81,13.81,0,0,0,2.06,3.25c.09.1.13.11.22,0a13.44,13.44,0,0,0,1.51-2,8.26,8.26,0,0,0,1.19-4.22m1.1.12A8.39,8.39,0,0,1,7.71,75,12.83,12.83,0,0,1,5.52,78.1c-.11.12-.12.19,0,.31a23.3,23.3,0,0,0,3,2.51c.11.09.23.17.33.27a.48.48,0,0,1,.13.55c-.06.19-.3.25-.58.16a3.9,3.9,0,0,1-1.09-.62A19.67,19.67,0,0,1,4.81,79c-.12-.12-.17-.11-.29,0A19.77,19.77,0,0,1,2,81.17a4.54,4.54,0,0,1-.8.47,1.53,1.53,0,0,1-.38.12c-.21,0-.34,0-.39-.2A.5.5,0,0,1,.67,81c.87-.64,1.75-1.27,2.55-2,.23-.21.45-.43.69-.64s.11-.15,0-.26a15.16,15.16,0,0,1-1.87-2.55A9.19,9.19,0,0,1,.83,72a7.26,7.26,0,0,1,1-4.65,12.11,12.11,0,0,1,2.42-2.86.58.58,0,0,1,.76,0,8.07,8.07,0,0,1,1.16,1.1,9.28,9.28,0,0,1,2.14,3.85,6.9,6.9,0,0,1,.25,1.78"/></g></g><g id="Group-20-2" data-name="Group-20"><g class="cls-4"><path id="Fill-18-2" data-name="Fill-18" class="cls-1" d="M132.11,70.64a8,8,0,0,0-2.75-5.57c-.12-.1-.16-.08-.25,0a11.17,11.17,0,0,0-1,1.11,7,7,0,0,0-1,7.46,13.54,13.54,0,0,0,2.07,3.25c.08.1.12.11.21,0a14,14,0,0,0,1.51-2,8.17,8.17,0,0,0,1.19-4.22m1.1.12a8.42,8.42,0,0,1-.86,3.71,13.35,13.35,0,0,1-2.2,3.15c-.1.12-.11.18,0,.31a23.3,23.3,0,0,0,3,2.51,2.91,2.91,0,0,1,.33.26.51.51,0,0,1,.14.56c-.07.19-.3.25-.58.16a3.82,3.82,0,0,1-1.1-.62,20.39,20.39,0,0,1-2.48-2.24c-.12-.12-.17-.11-.28,0a20,20,0,0,1-2.51,2.13,5.67,5.67,0,0,1-.79.47,1.61,1.61,0,0,1-.39.12c-.21,0-.33,0-.39-.2a.51.51,0,0,1,.22-.61,31.46,31.46,0,0,0,2.55-2c.24-.21.45-.43.69-.64s.11-.15,0-.26A15.74,15.74,0,0,1,126.68,75a9.35,9.35,0,0,1-1.22-3.53,7.31,7.31,0,0,1,1-4.64A12.11,12.11,0,0,1,128.9,64a.58.58,0,0,1,.76,0,7.65,7.65,0,0,1,1.17,1.1A9.39,9.39,0,0,1,133,69a7.23,7.23,0,0,1,.24,1.78"/></g></g><path class="cls-2" d="M12,104.16l-5.73,2.75L5.8,106l2.57-1.23-1.3-2.7L4.5,103.29l-.44-.93,5.72-2.75.45.93-2.4,1.15,1.29,2.69,2.4-1.15Z"/><path class="cls-2" d="M10.51,111.44l-1.4-2.29-1.43.31-.58-.93,6.55-1.29.62,1-4.1,5.27-.57-.94Zm.53-.66,2-2.46L9.93,109Z"/><path class="cls-2" d="M21.23,117.41l-6,2.75-.79-1,3-4.12-4.67,2-.79-1,4-5.21.7.88-3.34,4.08,4.9-2.14.71.88-3.15,4.33,4.72-2.38Z"/><path class="cls-2" d="M21.4,124.48l-1.92-1.87-1.31.65-.79-.77,6-2.85.84.82-2.68,6.11-.79-.77Zm.35-.77,1.31-2.86-2.82,1.39Z"/><path class="cls-2" d="M27.77,123.44l-4.08,4.87-.79-.66L27,122.78Z"/><path class="cls-2" d="M30,125.17l-3.86,5-.82-.62,3.87-5Z"/><path class="cls-2" d="M31.75,132.46,29.51,131l-1.17.89-.91-.6,5.39-4,1,.65-1.48,6.51-.92-.6Zm.19-.82.75-3.06-2.51,1.9Z"/><path class="cls-2" d="M38.46,137.74l-.91-.47L37,131.69l-2.15,4.16-.91-.47,2.91-5.63.91.47.58,5.6,2.16-4.19.92.47Z"/><path class="cls-2" d="M45,137.76l-.82,2.33-1-.34,2.1-6,2,.72a2.36,2.36,0,0,1,1.39,1,1.88,1.88,0,0,1,0,1.53,1.8,1.8,0,0,1-1,1.15,2.36,2.36,0,0,1-1.71-.05Zm2.8-1.07a1,1,0,0,0,0-.87,1.38,1.38,0,0,0-.82-.59l-1-.34L45.28,137l1,.34C47.05,137.59,47.57,137.39,47.81,136.69Z"/><path class="cls-2" d="M55,137a3.05,3.05,0,0,1,.83,1.38,3.64,3.64,0,0,1-.78,3.27,3,3,0,0,1-1.36.87,3.27,3.27,0,0,1-3.12-.74,3,3,0,0,1-.83-1.39,3.59,3.59,0,0,1,.77-3.26,3,3,0,0,1,1.37-.87A3.32,3.32,0,0,1,55,137Zm-2.81.18a1.89,1.89,0,0,0-.9.61,2.55,2.55,0,0,0-.54,1.12,2.61,2.61,0,0,0,0,1.24,1.84,1.84,0,0,0,.54.95,2.24,2.24,0,0,0,2.1.5,1.89,1.89,0,0,0,.9-.61,2.89,2.89,0,0,0,.56-2.36,1.9,1.9,0,0,0-.53-1,2,2,0,0,0-1-.52A2.06,2.06,0,0,0,52.22,137.14Z"/><path class="cls-2" d="M59.58,140.56,62,144.1l-1.24-.16-2.12-3.24-.37,2.92-1-.13.8-6.3,1,.13-.37,2.88,2.87-2.56,1.23.15Z"/><path class="cls-2" d="M65,138.72l-.08,1.93,2.34.09,0,.79-2.34-.09-.08,2,2.61.1,0,.84-3.63-.15.25-6.35,3.64.15,0,.83Zm2.31-2.14-2,.94,0-.72,2-1Z"/><path class="cls-2" d="M76.2,141.17a1.58,1.58,0,0,1,.44,1,1.62,1.62,0,0,1-.42,1.3,2.25,2.25,0,0,1-1.5.59l-2.52.22-.54-6.33,2.47-.21a2.15,2.15,0,0,1,1.49.3,1.62,1.62,0,0,1,.38,2.12,1.47,1.47,0,0,1-.78.57A1.59,1.59,0,0,1,76.2,141.17Zm-3.29-.61,1.27-.11a1.23,1.23,0,0,0,.8-.32.91.91,0,0,0,.22-.73.89.89,0,0,0-.34-.66,1.3,1.3,0,0,0-.88-.18l-1.23.11Zm2.41,2.31a1,1,0,0,0-.13-1.49,1.41,1.41,0,0,0-.93-.19L73,141.3l.17,2,1.29-.11A1.39,1.39,0,0,0,75.32,142.87Z"/><path class="cls-2" d="M82.09,136.83a2.89,2.89,0,0,1,1.32.92,3.36,3.36,0,0,1,.73,1.57,3.42,3.42,0,0,1-.09,1.72,3,3,0,0,1-.88,1.36,3.09,3.09,0,0,1-1.49.71,3,3,0,0,1-3-1,3.41,3.41,0,0,1-.72-1.56,3.35,3.35,0,0,1,.09-1.73,3,3,0,0,1,.88-1.35,3.17,3.17,0,0,1,1.5-.71A3.06,3.06,0,0,1,82.09,136.83Zm-2.48,1.31a2,2,0,0,0-.58.93,2.58,2.58,0,0,0,0,1.24,2.68,2.68,0,0,0,.49,1.15,2,2,0,0,0,.89.64,2.1,2.1,0,0,0,1.12.07,2.13,2.13,0,0,0,1-.48,1.79,1.79,0,0,0,.57-.93,2.91,2.91,0,0,0-.46-2.38,1.87,1.87,0,0,0-.88-.65,2.22,2.22,0,0,0-2.12.41Z"/><path class="cls-2" d="M92.49,133.35l.52,6.52-1.19.4L89,136l.29,5.09-1.19.4L84.55,136l1.07-.36,2.69,4.55L88,134.86l1.08-.36L92,139l-.61-5.25Z"/><path class="cls-2" d="M96.92,137.33l2-.92.33.72-2.92,1.36-2.67-5.77.94-.43Z"/><path class="cls-2" d="M103.85,133.68a1.7,1.7,0,0,1-.28.9,2.46,2.46,0,0,1-.87.77,2.9,2.9,0,0,1-1.12.37,2.08,2.08,0,0,1-1-.16,1.81,1.81,0,0,1-.77-.66l1-.54a1.13,1.13,0,0,0,1.53.29,1,1,0,0,0,.51-.57.94.94,0,0,0-.53-1.09,1.27,1.27,0,0,0-.58-.07l-.81.12a5.93,5.93,0,0,1-1,.15A1.83,1.83,0,0,1,99,133a1.53,1.53,0,0,1-.69-.69,1.6,1.6,0,0,1-.22-.91,1.68,1.68,0,0,1,.33-.88,2.59,2.59,0,0,1,.84-.71,2.31,2.31,0,0,1,1.57-.35,1.71,1.71,0,0,1,1.17.75l-1,.54a1.11,1.11,0,0,0-.6-.37,1.08,1.08,0,0,0-.78.14,1.06,1.06,0,0,0-.5.53.79.79,0,0,0,.09.69.76.76,0,0,0,.42.37,1.16,1.16,0,0,0,.56.07c.2,0,.46-.06.79-.12a6,6,0,0,1,1-.15,1.81,1.81,0,0,1,.84.17,1.7,1.7,0,0,1,.71.72A1.76,1.76,0,0,1,103.85,133.68Z"/><path class="cls-2" d="M108.87,124.05a2.88,2.88,0,0,1,1.81.64l-.86.66a2,2,0,0,0-1.12-.29,2.11,2.11,0,0,0-1.16.47,1.93,1.93,0,0,0-.64.84,2,2,0,0,0-.07,1.06,3,3,0,0,0,1.47,1.91,1.88,1.88,0,0,0,1,.2,1.85,1.85,0,0,0,1-.39,2.21,2.21,0,0,0,.75-1,2,2,0,0,0,0-1.16l.86-.66a2.82,2.82,0,0,1,.16,1.91,3.45,3.45,0,0,1-2.7,2.3,2.74,2.74,0,0,1-1.54-.26,3.62,3.62,0,0,1-1.33-1.1,3.68,3.68,0,0,1-.72-1.56,2.76,2.76,0,0,1,.15-1.56,3.06,3.06,0,0,1,1-1.3A3.12,3.12,0,0,1,108.87,124.05Z"/><path class="cls-2" d="M111.12,121.38l2.6,2.73a1.85,1.85,0,0,0,1.14.66,1.38,1.38,0,0,0,1-.43,1.32,1.32,0,0,0,.47-1,1.84,1.84,0,0,0-.6-1.17l-2.61-2.73.75-.71,2.6,2.73a2.65,2.65,0,0,1,.87,1.89,2.66,2.66,0,0,1-2.56,2.45,2.71,2.71,0,0,1-1.85-1l-2.6-2.73Z"/><path class="cls-2" d="M115.73,116.71l4.7,4.27-.69.76-4.7-4.27Z"/><path class="cls-2" d="M123.66,115.79a1.69,1.69,0,0,1,.08.93,2.48,2.48,0,0,1-.51,1,2.74,2.74,0,0,1-.91.77,2.06,2.06,0,0,1-1,.24,1.81,1.81,0,0,1-1-.32l.68-.86a1.16,1.16,0,0,0,.78.17,1.19,1.19,0,0,0,.75-.47,1,1,0,0,0,.25-.72.86.86,0,0,0-.35-.61.82.82,0,0,0-.56-.2,1.42,1.42,0,0,0-.56.15,7.49,7.49,0,0,0-.7.42,5.6,5.6,0,0,1-.9.52,1.75,1.75,0,0,1-.82.16,1.55,1.55,0,0,1-.9-.39,1.55,1.55,0,0,1-.57-1.69,2.61,2.61,0,0,1,.5-1,2.4,2.4,0,0,1,1.33-.91,1.73,1.73,0,0,1,1.36.25l-.68.86a1.2,1.2,0,0,0-.7-.12,1.23,1.23,0,0,0-.92,1.11.74.74,0,0,0,.33.6.76.76,0,0,0,.53.19,1.21,1.21,0,0,0,.55-.14c.17-.1.4-.23.69-.42a6.7,6.7,0,0,1,.91-.53,1.83,1.83,0,0,1,.84-.16,1.71,1.71,0,0,1,.93.4A1.76,1.76,0,0,1,123.66,115.79Z"/><path class="cls-2" d="M120.91,110.07l5.23,3.61-.58.85-5.23-3.62Z"/><path class="cls-2" d="M130,107.47l-.52.88-5.61.29,4,2.38-.52.88-5.48-3.21.52-.88,5.62-.29L124,105.14l.52-.88Z"/><path class="cls-2" d="M126.4,102.19l1.75.81,1-2.12.72.34-1,2.12,1.78.83,1.11-2.36.75.35-1.53,3.3-5.76-2.69,1.54-3.3.75.35Z"/>
</svg>