<svg xmlns="http://www.w3.org/2000/svg" xmlns:xlink="http://www.w3.org/1999/xlink" width="500px" height="500px" viewBox="0 0 500 500" version="1.1">
    <title>Well</title>
    <g id="Well" stroke="none" stroke-width="1" fill="none" fill-rule="evenodd">
        <path d="M112.514076,324 L112.908104,323.990949 C115.937684,323.876305 118.710036,322.672541 121.22516,320.379657 C123.168664,318.316061 124.597712,316.309787 125.512302,314.360836 C126.426892,312.755817 127.198578,311.179459 127.827359,309.631762 C128.45614,308.084065 129.05634,306.507707 129.627959,304.902689 C131.228492,299.170478 132.771863,293.466929 134.258072,287.792041 C135.744282,282.117152 137.287653,276.356281 138.888186,270.509426 C139.116833,269.477628 139.374062,268.44583 139.659871,267.414033 C139.945681,266.382235 140.202909,265.293115 140.431557,264.146673 C140.888852,264.719894 141.146081,265.235793 141.203243,265.694369 C141.260405,266.152946 141.288985,266.668845 141.288985,267.242066 C141.517633,269.53495 141.7177,271.856496 141.889185,274.206702 C142.060671,276.556908 142.260738,278.878453 142.489385,281.171338 C143.061004,284.839952 143.746947,288.537228 144.547214,292.263165 C145.34748,295.989101 146.54788,299.571733 148.148413,303.011059 C149.520299,306.106453 151.406641,309.02988 153.807441,311.781341 C156.665536,314.76209 159.923764,316.223804 163.582125,316.166482 C167.240487,316.10916 170.441553,314.590124 173.185324,311.609375 C173.98559,310.806865 174.671533,309.975695 175.243152,309.115863 C175.814771,308.256032 176.38639,307.367539 176.958009,306.450385 C178.558542,303.469636 180.101913,300.488887 181.588123,297.508137 L181.588123,297.508137 L186.04675,288.565889 C186.275398,287.992668 186.532627,287.448108 186.818436,286.932209 C187.104246,286.41631 187.418636,285.87175 187.761607,285.298529 C190.84835,287.476769 193.87793,288.3366 196.850349,287.878024 C199.822768,287.419447 202.738024,286.387649 205.596119,284.78263 C210.283395,281.916525 214.456213,278.305232 218.114574,273.948752 C220.515374,271.42658 222.230231,268.331186 223.259145,264.662572 C223.602117,263.860062 223.773602,263.057553 223.773602,262.255043 C223.773602,259.962159 222.916174,258.35714 221.201317,257.439986 C218.914841,256.522833 217.142822,257.038732 215.88526,258.987683 C215.427965,259.331616 215.027832,259.790193 214.684861,260.363414 C214.341889,260.936635 214.05608,261.509856 213.827432,262.083077 C212.112575,265.063826 210.026166,267.557338 207.568205,269.563611 C205.110243,271.569885 202.395053,273.260887 199.422634,274.636618 C198.39372,275.209839 197.450549,275.381805 196.59312,275.152517 C195.735692,274.923228 194.849683,274.521973 193.935092,273.948752 C193.134826,273.146243 192.763273,272.343734 192.820435,271.541224 C192.877597,270.738715 193.020502,269.878883 193.249149,268.961729 C194.16374,265.637047 195.07833,262.341026 195.99292,259.073666 C196.907511,255.806307 197.764939,252.395641 198.565206,248.841671 C199.59412,244.485191 200.422967,240.014067 201.051748,235.428299 C201.680529,230.84253 201.99492,226.314084 201.99492,221.84296 C201.99492,219.894008 201.852015,217.973718 201.566205,216.082088 C201.280396,214.190459 200.737358,212.327491 199.937091,210.493183 C198.222234,206.939213 196.021501,204.904278 193.334892,204.388379 C190.648283,203.87248 187.875931,204.932939 185.017836,207.569756 C184.446217,208.028333 183.93176,208.515571 183.474465,209.03147 C183.01717,209.547369 182.559875,210.091929 182.10258,210.66515 C181.187989,212.499457 180.273399,214.276442 179.358809,215.996105 C178.444218,217.715768 177.643952,219.492754 176.958009,221.327061 C175.814771,223.963878 174.985924,226.744 174.471466,229.667427 C173.957009,232.590854 173.585457,235.485621 173.356809,238.351726 C172.78519,244.886446 172.928095,251.306521 173.785524,257.611953 C174.642952,263.917384 176.500714,270.108171 179.358809,276.184314 C180.044751,277.216112 180.044751,278.362554 179.358809,279.623641 C177.643952,282.260457 175.957676,284.897274 174.299981,287.534091 C172.642286,290.170908 170.95601,292.865047 169.241153,295.616508 C169.126829,295.845796 168.898182,296.046423 168.55521,296.21839 C168.212239,296.390356 167.869267,296.705628 167.526296,297.164205 C167.297648,296.361695 167.154744,295.67383 167.097582,295.100609 C167.04042,294.527388 166.897515,293.896845 166.668868,293.208979 C166.668868,290.572163 166.583125,287.935346 166.411639,285.298529 C166.240153,282.661712 166.268734,279.967573 166.497382,277.216112 C166.611706,270.452104 166.840353,263.745418 167.183325,257.096054 C167.526296,250.44669 167.812105,243.854648 168.040753,237.319928 C168.155077,231.817006 168.269401,226.400067 168.383724,221.069112 C168.498048,215.738156 168.612372,210.378539 168.726696,204.990261 C168.955343,202.812021 168.898182,200.60512 168.55521,198.369558 C168.212239,196.133996 167.583458,193.984417 166.668868,191.920822 C165.754277,189.97187 164.553877,188.395512 163.067668,187.191748 C161.581459,185.987984 159.695116,185.386102 157.40864,185.386102 C155.122164,185.386102 153.292984,185.987984 151.921098,187.191748 C150.549213,188.395512 149.463137,190.029192 148.66287,192.092788 C147.862604,194.04174 147.14808,196.019352 146.519299,198.025626 C145.890518,200.031899 145.233156,202.009512 144.547214,203.958464 C141.574795,214.620375 138.630957,225.253625 135.715701,235.858214 C132.800444,246.462804 129.856606,257.096054 126.884188,267.757965 C125.397978,272.80231 123.854607,277.732011 122.254074,282.547068 C120.653541,287.362125 118.82436,292.119859 116.766532,296.820272 C116.309237,297.966714 115.737618,299.170478 115.051675,300.431564 L115.051675,300.431564 L114.194247,300.431564 C114.079923,299.629055 113.937018,298.855207 113.765532,298.110019 C113.594047,297.364832 113.39398,296.705628 113.165332,296.132407 C112.593713,291.775927 111.993514,287.390786 111.364733,282.976984 C110.735952,278.563182 110.250076,274.178041 109.907104,269.821561 C108.649543,257.325342 107.706371,244.972429 107.07759,232.762821 C106.44881,220.553213 106.420229,208.200299 106.991848,195.704081 C107.220495,194.099062 107.249076,192.522704 107.07759,190.975007 C106.906105,189.42731 106.706038,187.850952 106.47739,186.245933 C106.248743,183.609117 105.477057,181.488199 104.162334,179.88318 C102.84761,178.278161 101.218496,177.361007 99.2749915,177.131719 C94.9306874,176.443854 91.6152974,178.450127 89.3288215,183.15054 C88.528555,184.755559 87.7854503,186.360578 87.0995076,187.965597 C86.4135648,189.570615 85.8419458,191.290279 85.3846507,193.124586 C83.4411462,200.117883 82.0120988,207.197162 81.0975084,214.362425 C80.1829181,221.527688 79.8399467,228.836257 80.0685943,236.28813 C80.4115657,247.064686 81.4976417,257.640614 83.3268224,268.015915 C85.1560031,278.391215 87.8426122,288.623211 91.3866498,298.711901 C92.3012401,301.348718 93.3587352,303.956874 94.5591351,306.536368 C95.7595349,309.115863 96.9885157,311.552053 98.2460774,313.844937 C99.0463439,315.335311 99.9895152,316.682381 101.075591,317.886145 C102.161667,319.089909 103.276324,320.150368 104.419562,321.067522 C107.049009,323.131118 109.878523,324.105593 112.908104,323.990949 L112.514076,324 Z M187.761607,255.89229 C187.189988,253.484761 186.875598,250.618656 186.818436,247.293974 C186.761274,243.969292 186.904179,240.529966 187.24715,236.975995 C187.590122,233.422025 188.13316,229.954038 188.876264,226.572034 C189.619369,223.190029 190.56254,220.237941 191.705778,217.715768 C192.163073,218.747566 192.36314,220.954467 192.305978,224.336471 C192.248816,227.718476 192.020169,231.444412 191.620035,235.514282 C191.219902,239.584151 190.676864,243.510715 189.990921,247.293974 C189.304979,251.077233 188.561874,253.943338 187.761607,255.89229 Z M236.806515,310.061678 C242.637028,311.093476 248.153151,310.892848 253.354884,309.459796 C258.556616,308.026743 263.386797,305.47591 267.845424,301.807295 C273.675938,297.106882 278.420375,291.804588 282.078737,285.900411 C285.737098,279.996234 288.82384,273.60482 291.338964,266.726167 C291.453288,266.496879 291.51045,266.210268 291.51045,265.866336 C291.51045,265.522403 291.624773,265.121148 291.853421,264.662572 C292.42504,261.33789 291.281802,258.930361 288.423707,257.439986 C287.166145,256.866765 285.851422,256.809443 284.479536,257.26802 C283.107651,257.726597 281.964413,258.643751 281.049823,260.019481 C280.36388,261.280567 279.735099,262.455671 279.16348,263.544791 C278.591861,264.633911 278.020242,265.809014 277.448623,267.0701 C276.419709,269.133696 275.419376,271.139969 274.447624,273.088921 C273.475871,275.037872 272.475538,276.986824 271.446624,278.935775 C269.846091,281.572592 268.102653,283.95146 266.21631,286.072377 C264.329968,288.193295 262.129235,290.113586 259.614111,291.833249 C257.327635,293.438268 254.955417,294.58471 252.497455,295.272575 C250.039494,295.96044 247.381465,296.189729 244.523371,295.96044 C242.922838,295.845796 241.436628,295.530525 240.064743,295.014626 C238.692857,294.498727 237.492457,293.724878 236.463543,292.69308 C235.434629,291.661283 234.605782,290.371535 233.977001,288.823838 C233.34822,287.276142 233.090991,285.355851 233.205315,283.062967 C236.292058,284.78263 239.721771,285.298529 243.494457,284.610664 C247.495789,284.152087 251.154151,282.661712 254.469541,280.13954 C259.614111,276.585569 264.072739,272.286411 267.845424,267.242066 C270.360548,263.917384 271.875338,260.334753 272.389795,256.494172 C272.904252,252.653591 272.475538,249.070959 271.103653,245.746277 C269.731767,242.421595 267.531034,239.498168 264.501454,236.975995 C261.471873,234.453823 257.784931,232.791482 253.440627,231.988972 C249.782265,231.301107 246.181066,231.38709 242.637028,232.246922 C239.09299,233.106753 235.663277,234.568467 232.347887,236.632063 C228.460878,239.039591 224.888259,242.192307 221.630031,246.09021 C218.371803,249.988113 215.799518,254.373254 213.913175,259.245633 C212.026832,264.118012 210.969337,269.305662 210.74069,274.808584 C210.512042,280.311506 211.483794,285.814428 213.655947,291.31735 C215.828099,296.590983 218.829098,300.804158 222.658945,303.956874 C226.488792,307.10959 231.204649,309.144524 236.806515,310.061678 Z M231.83343,273.948752 C232.290725,268.904407 233.491125,264.318639 235.434629,260.191447 C237.378134,256.064256 240.464876,252.567608 244.694856,249.701502 C245.609447,249.128281 246.60978,248.698366 247.695856,248.411755 C248.781932,248.125145 249.839427,247.867195 250.868341,247.637907 C253.612112,247.408618 255.66994,248.297111 257.041826,250.303385 C258.413712,252.309658 258.585197,254.631203 257.556283,257.26802 C257.098988,258.185174 256.527369,259.102327 255.841426,260.019481 C254.126569,262.083077 252.35455,263.974706 250.52537,265.694369 C248.696189,267.414033 246.695523,268.904407 244.523371,270.165494 C243.60878,270.738715 242.637028,271.16863 241.608114,271.455241 C240.5792,271.741851 239.550286,271.999801 238.521372,272.229089 C237.492457,272.573022 236.434962,272.859632 235.348886,273.088921 C234.26281,273.318209 233.090991,273.60482 231.83343,273.948752 Z M311.822242,319.264841 L312.345961,319.261876 C315.489865,319.204553 318.490865,318.144095 321.34896,316.080499 C322.949493,315.048701 324.492864,313.902259 325.979073,312.641173 C327.465283,311.380086 328.837168,309.947034 330.09473,308.342015 C332.038234,305.934486 333.924577,303.440975 335.753758,300.86148 C337.582938,298.281986 339.183471,295.616508 340.555357,292.865047 C341.2413,291.718605 341.898661,290.572163 342.527442,289.42572 C343.156223,288.279278 343.813585,287.132836 344.499528,285.986394 C345.985737,283.234933 347.386204,280.540794 348.700927,277.903978 C350.015651,275.267161 351.130308,272.974277 352.044898,271.025325 C352.959488,269.076374 353.674012,267.471355 354.188469,266.210268 C354.702926,264.949182 354.960155,264.318639 354.960155,264.318639 C355.646098,262.828264 355.703259,261.452534 355.13164,260.191447 C354.560022,258.930361 353.645431,257.955885 352.387869,257.26802 C351.015984,256.694799 349.672679,256.72346 348.357956,257.354003 C347.043232,257.984546 346.100061,258.930361 345.528442,260.191447 C345.299794,260.53538 345.128309,260.907974 345.013985,261.309228 C344.899661,261.710483 344.728175,262.083077 344.499528,262.42701 C344.499528,262.656298 344.442366,262.828264 344.328042,262.942908 C344.213718,263.057553 344.099394,263.229519 343.985071,263.458807 C341.698595,267.471355 339.383538,271.483902 337.0399,275.496449 C334.696262,279.508996 332.266882,283.521544 329.751758,287.534091 C328.379873,289.826975 326.836502,292.033876 325.121645,294.154794 C323.406788,296.275712 321.463283,298.196002 319.291131,299.915665 C318.03357,300.832819 316.976075,301.578007 316.118646,302.151228 C315.261218,302.724449 314.43237,302.953737 313.632104,302.839093 C312.831837,302.724449 312.060151,302.294533 311.317047,301.549345 C310.573942,300.804158 309.687933,299.629055 308.659019,298.024036 C307.058485,295.731152 305.943829,293.208979 305.315048,290.457518 C304.686267,287.706057 304.257553,285.011918 304.028905,282.375102 C303.914581,281.801881 304.000324,281.199999 304.286134,280.569455 C304.571943,279.938912 304.829172,279.33703 305.057819,278.763809 C313.975075,265.121148 320.948826,250.675978 325.979073,235.428299 C328.60852,227.059271 330.209054,218.346312 330.780673,209.289419 C330.780673,206.652602 330.637768,203.987125 330.351958,201.292986 C330.066149,198.598847 329.465949,196.048013 328.551359,193.640485 C327.522444,191.118312 326.150559,188.968733 324.435702,187.191748 C322.720845,185.414763 320.777341,184.125016 318.605189,183.322506 C316.433037,182.519997 314.11798,182.262047 311.660018,182.548658 C309.202057,182.835268 306.829838,183.666439 304.543362,185.042169 C303.400124,185.844679 302.285467,186.70451 301.199391,187.621664 C300.113315,188.538818 299.112982,189.513293 298.198392,190.545091 C295.911916,192.837975 293.996992,195.302826 292.453621,197.939643 C290.91025,200.576459 289.566945,203.32792 288.423707,206.194026 C286.480203,210.779794 284.908251,215.422884 283.707851,220.123297 C282.507451,224.823709 281.507118,229.638766 280.706851,234.568467 C279.106318,244.427869 278.56328,254.172627 279.077737,263.80274 C279.592194,273.432853 281.507118,282.948323 284.822508,292.349148 C285.737098,294.985965 286.737431,297.536798 287.823507,300.001649 C288.909583,302.466499 290.31005,304.845366 292.024907,307.138251 C294.768678,311.265442 298.427039,314.532802 302.999991,316.94033 C306.086733,318.545349 309.202057,319.319198 312.345961,319.261876 L311.822242,319.264841 Z M302.828505,255.548357 C302.485534,254.516559 302.314048,254.00066 302.314048,254.00066 C302.657019,248.039161 303.028572,242.134985 303.428705,236.28813 C303.828838,230.441276 304.314714,224.537099 304.886333,218.5756 C305.114981,215.709495 305.600857,212.929373 306.343962,210.235234 C307.087066,207.541095 308.030238,204.818295 309.173476,202.066834 C309.630771,201.264325 310.030904,200.490476 310.373875,199.745289 C310.716847,199.000102 311.174142,198.340897 311.745761,197.767676 C312.774675,196.277302 313.717846,195.589436 314.575275,195.704081 C315.432703,195.818725 316.147227,196.678556 316.718846,198.283575 C317.061817,199.544662 317.404789,200.834409 317.74776,202.152817 C318.090732,203.471226 318.262217,204.760973 318.262217,206.022059 C318.262217,209.690674 317.919246,213.473933 317.233303,217.371836 C316.318713,222.530825 314.975408,227.489187 313.203389,232.246922 C311.431371,237.004656 309.402123,241.73373 307.115647,246.434143 C306.315381,247.924517 305.600857,249.386231 304.972076,250.819283 C304.343295,252.252336 303.628772,253.828694 302.828505,255.548357 Z M376.300861,319.264841 L376.82458,319.261876 C379.968485,319.204553 382.969484,318.144095 385.827579,316.080499 C387.428112,315.048701 388.971483,313.902259 390.457693,312.641173 C391.943902,311.380086 393.315787,309.947034 394.573349,308.342015 C396.516854,305.934486 398.403196,303.440975 400.232377,300.86148 C402.061558,298.281986 403.662091,295.616508 405.033976,292.865047 C405.719919,291.718605 406.377281,290.572163 407.006062,289.42572 C407.634842,288.279278 408.292204,287.132836 408.978147,285.986394 C410.464356,283.234933 411.864823,280.540794 413.179546,277.903978 C414.49427,275.267161 415.608927,272.974277 416.523517,271.025325 C417.438108,269.076374 418.152631,267.471355 418.667089,266.210268 C419.181546,264.949182 419.438774,264.318639 419.438774,264.318639 C420.124717,262.828264 420.181879,261.452534 419.61026,260.191447 C419.038641,258.930361 418.12405,257.955885 416.866489,257.26802 C415.494603,256.694799 414.151299,256.72346 412.836575,257.354003 C411.521851,257.984546 410.57868,258.930361 410.007061,260.191447 C409.778414,260.53538 409.606928,260.907974 409.492604,261.309228 C409.37828,261.710483 409.206795,262.083077 408.978147,262.42701 C408.978147,262.656298 408.920985,262.828264 408.806661,262.942908 C408.692338,263.057553 408.578014,263.229519 408.46369,263.458807 C406.177214,267.471355 403.862157,271.483902 401.51852,275.496449 C399.174882,279.508996 396.745501,283.521544 394.230378,287.534091 C392.858492,289.826975 391.315121,292.033876 389.600264,294.154794 C387.885407,296.275712 385.941903,298.196002 383.769751,299.915665 C382.512189,300.832819 381.454694,301.578007 380.597265,302.151228 C379.739837,302.724449 378.910989,302.953737 378.110723,302.839093 C377.310456,302.724449 376.538771,302.294533 375.795666,301.549345 C375.052561,300.804158 374.166552,299.629055 373.137638,298.024036 C371.537105,295.731152 370.422448,293.208979 369.793667,290.457518 C369.164886,287.706057 368.736172,285.011918 368.507524,282.375102 C368.3932,281.801881 368.478943,281.199999 368.764753,280.569455 C369.050562,279.938912 369.307791,279.33703 369.536438,278.763809 C378.453694,265.121148 385.427446,250.675978 390.457693,235.428299 C393.08714,227.059271 394.687673,218.346312 395.259292,209.289419 C395.259292,206.652602 395.116387,203.987125 394.830578,201.292986 C394.544768,198.598847 393.944568,196.048013 393.029978,193.640485 C392.001064,191.118312 390.629178,188.968733 388.914321,187.191748 C387.199464,185.414763 385.25596,184.125016 383.083808,183.322506 C380.911656,182.519997 378.596599,182.262047 376.138637,182.548658 C373.680676,182.835268 371.308457,183.666439 369.021981,185.042169 C367.878743,185.844679 366.764086,186.70451 365.67801,187.621664 C364.591934,188.538818 363.591601,189.513293 362.677011,190.545091 C360.390535,192.837975 358.475611,195.302826 356.93224,197.939643 C355.388869,200.576459 354.045564,203.32792 352.902327,206.194026 C350.958822,210.779794 349.38687,215.422884 348.18647,220.123297 C346.98607,224.823709 345.985737,229.638766 345.18547,234.568467 C343.584937,244.427869 343.041899,254.172627 343.556356,263.80274 C344.070814,273.432853 345.985737,282.948323 349.301127,292.349148 C350.215717,294.985965 351.216051,297.536798 352.302127,300.001649 C353.388203,302.466499 354.788669,304.845366 356.503526,307.138251 C359.247297,311.265442 362.905658,314.532802 367.47861,316.94033 C370.565353,318.545349 373.680676,319.319198 376.82458,319.261876 L376.300861,319.264841 Z M367.307124,255.548357 C366.964153,254.516559 366.792667,254.00066 366.792667,254.00066 C367.135639,248.039161 367.507191,242.134985 367.907324,236.28813 C368.307458,230.441276 368.793334,224.537099 369.364953,218.5756 C369.5936,215.709495 370.079476,212.929373 370.822581,210.235234 C371.565686,207.541095 372.508857,204.818295 373.652095,202.066834 C374.10939,201.264325 374.509523,200.490476 374.852495,199.745289 C375.195466,199.000102 375.652761,198.340897 376.22438,197.767676 C377.253294,196.277302 378.196466,195.589436 379.053894,195.704081 C379.911323,195.818725 380.625846,196.678556 381.197465,198.283575 C381.540437,199.544662 381.883408,200.834409 382.226379,202.152817 C382.569351,203.471226 382.740837,204.760973 382.740837,206.022059 C382.740837,209.690674 382.397865,213.473933 381.711922,217.371836 C380.797332,222.530825 379.454027,227.489187 377.682009,232.246922 C375.90999,237.004656 373.880743,241.73373 371.594267,246.434143 C370.794,247.924517 370.079476,249.386231 369.450696,250.819283 C368.821915,252.252336 368.107391,253.828694 367.307124,255.548357 Z" fill="#2C50F0" fill-rule="nonzero"/>
    </g>
</svg>