<svg xmlns="http://www.w3.org/2000/svg" viewbox="0 0 70 70" id="1505544940" class="svg u_1505544940" data-icon-name="wp-anchor_thin">
    <path d="M56.5,39.2c-0.3-0.2-0.7-0.2-1,0l-8,4C47.2,43.3,47,43.6,47,44c0,0.4,0.2,0.7,0.5,0.9l1.4,0.9c-3.3,2.5-6.6,3.8-10.9,4.1V29
	h5.5c1.4,0,2.5-1.1,2.5-2.5c0-1.4-1.1-2.5-2.5-2.5H38v-2.8c1.8-1,3-3,3-5.2c0-3.3-2.7-6-6-6c-3.3,0-6,2.7-6,6c0,2.2,1.2,4.1,3,5.2
	V24h-5.5c-1.4,0-2.5,1.1-2.5,2.5c0,1.4,1.1,2.5,2.5,2.5H32v20.9c-4.3-0.4-7.6-1.6-10.9-4.1l1.4-0.9c0.3-0.2,0.5-0.5,0.5-0.9
	c0-0.4-0.2-0.7-0.6-0.8l-8-4c-0.3-0.2-0.7-0.1-1,0C13.2,39.3,13,39.7,13,40v9c0,0.4,0.2,0.7,0.5,0.9c0.3,0.2,0.7,0.2,1,0l1.9-1.2
	c1.8,2.3,6.4,7.2,16.1,9.4c0.5,0.1,1.3,1,1.6,1.5c0.2,0.3,0.5,0.4,0.8,0.4s0.6-0.2,0.8-0.4c0.4-0.5,1.1-1.4,1.6-1.5
	c9.7-2.2,14.4-7.1,16.1-9.4l1.9,1.2c0.3,0.2,0.7,0.2,1,0c0.3-0.2,0.5-0.5,0.5-0.9v-9C57,39.7,56.8,39.3,56.5,39.2z M35,12
	c2.2,0,4,1.8,4,4s-1.8,4-4,4c-2.2,0-4-1.8-4-4S32.8,12,35,12z M55,47.2l-1.2-0.7c-0.5-0.3-1.1-0.2-1.4,0.3c-1,1.6-5.2,7-15.5,9.4
	c-0.8,0.2-1.5,0.7-2,1.3c-0.5-0.5-1.2-1.1-2-1.3c-10.3-2.4-14.4-7.8-15.5-9.4c-0.3-0.5-0.9-0.6-1.4-0.3L15,47.2v-5.6l5,2.5l-1.1,0.7
	c-0.3,0.2-0.4,0.5-0.5,0.8c0,0.3,0.1,0.6,0.4,0.8c4.3,3.6,8.4,5.2,14.2,5.5c0.3,0,0.5-0.1,0.7-0.3c0.2-0.2,0.3-0.5,0.3-0.7V28
	c0-0.6-0.4-1-1-1h-6.5c-0.3,0-0.5-0.2-0.5-0.5s0.2-0.5,0.5-0.5H33c0.6,0,1-0.4,1-1v-3.1c0.3,0.1,0.7,0.1,1,0.1c0.3,0,0.7,0,1-0.1V25
	c0,0.6,0.4,1,1,1h6.5c0.3,0,0.5,0.2,0.5,0.5S43.8,27,43.5,27H37c-0.6,0-1,0.4-1,1v22.9c0,0.3,0.1,0.5,0.3,0.7
	c0.2,0.2,0.5,0.3,0.7,0.3c5.8-0.3,9.9-1.9,14.2-5.5c0.2-0.2,0.4-0.5,0.4-0.8c0-0.3-0.2-0.6-0.5-0.8L50,44.1l5-2.5V47.2z">
    </path>
</svg>