<svg xmlns="http://www.w3.org/2000/svg" viewbox="0 0 70 70" id="1371143036" class="svg u_1371143036" data-icon-name="ar-arrow_thick_recycle">
     <g>
          <path d="M28.6,20.9v6l10.6-7.3l-10.6-7.3v5.3c-8.3,1.7-15,8.6-16.1,17.3l3.2,0.4C16.6,28.1,21.9,22.5,28.6,20.9z">
          </path>
          <path d="M49.7,48.5l7.8-5.2l-4.9-2.1c0.2-1.2,0.4-2.5,0.4-3.8c0-6.7-3.3-13-8.9-16.8l-1.8,2.7c4.7,3.2,7.4,8.5,7.4,14.1
          c0,0.8-0.1,1.7-0.2,2.5L44,37.6l2.6,12.9l2.5-1.7l0.2,0.1C49.5,48.8,49.6,48.6,49.7,48.5z">
          </path>
          <path d="M32.6,54.5c-4.8,0-9.3-2-12.5-5.5l5.2-3.5l-12.2-4.9v13l4.3-2.8c3.8,4.3,9.4,6.9,15.3,6.9c4.1,0,8.1-1.2,11.5-3.6l-1.8-2.7
          C39.4,53.5,36.1,54.5,32.6,54.5z">
          </path>
     </g>
</svg>