<svg id="1790200379" data-name="Layer 1" xmlns="http://www.w3.org/2000/svg" viewbox="0 0 300 300" class="svg u_1790200379" data-icon-custom="true" data-icon-name="hawaiiArtboard 2.svg">
    <g id="avQjgs.tif">
       <path d="M210.63,102.9a24.88,24.88,0,0,0,5-.05c9.3-1.87,15,2.93,20.38,9.77,31.21,39.93,29.86,94.9-4,132.62-22,24.53-49.83,35.65-82.89,34.12-46.85-2.15-88-39.08-94.79-86.53q-7.22-50.57,27.59-88c1.51-1.64,3.27-1.93,5.28-1.91,4.52,0,9,0,13.55,0,2.81,0,3.46-.84,2.15-3.47-3.48-7-7-14-10.09-21.16-1.29-3-2.55-3.42-5.35-2-11.33,5.58-22.75,11-34.11,16.47-5.89,2.85-10,.92-11.28-5.72-1.21-6.24.21-12.28,2.28-18.15C50,52.75,58.39,38,67.47,23.6c1.33-2.11,3-3.37,5.52-3.05,19.14,2.36,38.15,5.34,56,13.12,4.12,1.79,8,4.16,10.63,8.1,3.56,5.43,2.55,9.17-3.21,11.95-11.1,5.35-22.18,10.73-33.37,15.91-3.25,1.5-4.25,3-2.45,6.47C104.68,84,108.49,92,112.2,100c1,2.28,2.34,3.33,4.79,3,3.32-.38,5.23,1.32,6.71,4.18,4.47,8.69,9.12,17.28,13.71,25.91.61,1.15.9,2.85,2.64,2.62,1.56-.2,1.17-1.92,1.52-2.95,2.66-7.82,5.36-15.64,7.73-23.55,1.37-4.55,3.69-6.62,8.74-6.33,7.5.43,15.06-.11,22.58.21,3.76.16,4.88-1.44,5.6-4.73,2.89-13.37,6.07-26.67,9-40A7.18,7.18,0,0,1,199.44,53c14-7,27.91-14.12,41.84-21.23,2.45-1.26,4.92-2.2,6.7.72,2,3.22-.7,4.84-2.89,6C232.43,45.11,219.69,51.57,207,58c-2.24,1.13-3.91,2.34-4.51,5.1q-3.8,17.63-8.05,35.16c-.84,3.44-.51,5,3.59,4.7S206.41,102.9,210.63,102.9ZM102,110.78c-3.31,0-6.63.13-9.93,0a8.23,8.23,0,0,0-7.33,3.39c-23.39,28-30.06,59.64-18.3,94.05,16.08,47,64.15,72.7,111.35,60.6,39.22-10,63.44-36.15,71.07-76.16,5.64-29.6-2.52-55.9-22.14-78.74a8.23,8.23,0,0,0-7-3.14c-19.42.08-38.85.13-58.27,0-3.41,0-4.64,1.27-5.59,4.29-3.35,10.76-7,21.43-10.52,32.12-.73,2.19-1.69,4.3-4.49,4.41-2.51.09-3.6-1.61-4.65-3.59-4.38-8.22-9.5-16.11-13.17-24.64C118.91,113.58,113.53,107.42,102,110.78ZM49.93,80.25c-.19,5.22.26,5.41,4.71,3.28Q89.83,66.71,125,49.93c2.39-1.15,6.5-1.71,6.49-4.07,0-3-4-4-6.7-5.19-15.2-6.62-31.49-8.77-47.62-11.58-2.75-.47-4,.92-5.33,3.06A265.51,265.51,0,0,0,55.14,64.07C52.79,69.59,50.66,75.21,49.93,80.25Z">
       </path>
    </g>
</svg>