<?xml version="1.0" encoding="UTF-8"?>
<svg width="500px" height="500px" viewBox="0 0 500 500" version="1.1" xmlns="http://www.w3.org/2000/svg" xmlns:xlink="http://www.w3.org/1999/xlink">
    <title>Uber food</title>
    <g id="Uber-food" stroke="none" stroke-width="1" fill="none" fill-rule="evenodd">
        <g id="Uber-Food" transform="translate(83.000000, 132.000000)" fill-rule="nonzero">
            <path d="M47.4,104.72 C74,104.72 90.38,88.76 90.38,63 L90.38,5.88 L71.62,5.88 L71.62,63 C71.62,78.68 62.24,87.92 47.4,87.92 C32.56,87.92 22.62,78.54 22.62,63 L22.62,5.88 L3.86,5.88 L3.86,63 C3.86,88.76 20.66,104.72 47.4,104.72 Z M156.18,104.58 C177.46,104.58 191.32,89.32 191.32,66.78 C191.32,43.82 177.04,28.42 155.9,28.42 C144.7,28.42 136.02,33.04 130.7,41.3 L130.7,-9.09494702e-13 L112.5,-9.09494702e-13 L112.5,103.88 L130.7,103.88 L130.7,91.7 C136.16,99.96 144.84,104.58 156.18,104.58 Z M151.84,88.9 C139.38,88.9 130.7,79.66 130.7,66.22 C130.7,53.06 139.38,43.68 151.84,43.68 C164.16,43.68 172.84,53.06 172.84,66.22 C172.84,79.52 164.16,88.9 151.84,88.9 Z M238.78,104.58 C251.94,104.58 262.86,99.82 270.28,91.7 L260.48,81.48 C255.16,86.94 248.02,89.88 240.32,89.88 C229.4,89.88 221.28,83.44 218.9,72.8 L274.2,72.8 C276.02,45.64 264.68,28.42 238.36,28.42 C215.96,28.42 200.28,43.82 200.28,66.64 C200.28,89.18 215.54,104.58 238.78,104.58 Z M257.68,60.62 L218.48,60.62 C220.16,49.56 227.72,42.56 238.5,42.56 C249.84,42.56 257.26,49.56 257.68,60.62 Z M308.22,103.88 L308.22,67.76 C308.22,54.18 317.88,44.94 333.7,45.92 L333.7,28.28 C322.08,28.42 313.26,33.6 308.22,43.4 L308.22,28.98 L290.02,28.98 L290.02,103.88 L308.22,103.88 Z" id="Uber" fill="#000000"></path>
            <path d="M22.12,234.88 L22.12,197.78 L66.36,197.78 L66.36,179.3 L22.12,179.3 L22.12,155.22 L70.28,155.22 L70.42,136.88 L0,136.88 L0,234.88 L22.12,234.88 Z M115.4,235.72 C139.48,235.72 155.72,220.18 155.72,197.22 C155.72,174.12 139.48,158.86 115.4,158.86 C91.18,158.86 74.94,174.12 74.94,197.22 C74.94,220.18 91.18,235.72 115.4,235.72 Z M115.4,218.22 C104.2,218.22 96.5,209.82 96.5,197.5 C96.5,185.18 104.2,176.78 115.4,176.78 C126.46,176.78 134.16,185.18 134.16,197.5 C134.16,209.82 126.46,218.22 115.4,218.22 Z M202.52,235.72 C226.6,235.72 242.84,220.18 242.84,197.22 C242.84,174.12 226.6,158.86 202.52,158.86 C178.3,158.86 162.06,174.12 162.06,197.22 C162.06,220.18 178.3,235.72 202.52,235.72 Z M202.52,218.22 C191.32,218.22 183.62,209.82 183.62,197.5 C183.62,185.18 191.32,176.78 202.52,176.78 C213.58,176.78 221.28,185.18 221.28,197.5 C221.28,209.82 213.58,218.22 202.52,218.22 Z M284.74,235.72 C295.1,235.72 303.22,231.52 308.54,223.82 L308.54,234.88 L329.96,234.88 L329.96,131 L308.54,131 L308.54,170.62 C303.08,162.92 294.82,158.72 284.18,158.72 C263.18,158.72 249.18,173.98 249.18,196.94 C249.18,220.18 263.32,235.72 284.74,235.72 Z M289.78,218.36 C278.44,218.36 270.88,209.82 270.74,197.5 C270.88,185.32 278.58,176.64 289.78,176.64 C300.84,176.64 308.54,185.18 308.54,197.5 C308.54,209.82 300.84,218.36 289.78,218.36 Z" id="Food" fill="#33BC00"></path>
        </g>
    </g>
</svg>