<svg width="100%" height="100%" viewBox="0.00 0.00 100 100" id="1241341597" duda_id="1241341597"> <g> <path d="M7.4,30.2c0.3-3.5,1.4-6.8,3-9.9c3.5-6.4,10.3-10.4,17.2-12.8C35.2,4.9,44,3.9,50.9,8c5.4,3.1,8.7,8.7,12.5,13.5 			c4.2,5.4,9.7,9.4,15.7,12.6c4.8,2.6,10,5,14.3,8.6c3.3,2.6,5.6,6.3,6.5,10.4c0.5,4.1-0.4,8.4-2.6,11.9 			c-8.9,15.5-28.9,24.3-45.6,28c-12.7,2.8-27.6,2.7-39.3-3.8C6.1,85.7,0.9,79.7,0.1,72.5C-0.6,66,2.3,60.4,4.5,54.5 			C7.5,46.8,6.3,38.2,7.4,30.2z" style="fill:rgba(68,91,75,1);"></path> 
</g> 
</svg>