<svg id="1308370941" data-name="Layer 1" xmlns="http://www.w3.org/2000/svg" viewbox="0 0 300 300" class="svg u_1308370941" data-icon-custom="true" data-icon-name="hawaiiArtboard 2_2.svg">
    <g id="A1sDzf.tif">
       <path d="M141.36,84.67c.33,11.83-1.77,22.36-3.81,32.89-.34,1.74-.73,3.33.38,5,12.68,18.93,10.76,38.32,1.7,57.87a78.41,78.41,0,0,1-9.53,16,8.88,8.88,0,0,0-1.87,7.27c1.38,9.9,2.21,19.89,4,29.72C136,254.78,125,266.8,108.25,271.9c-11.83,3.61-23.88,4.5-36,1.58a36.32,36.32,0,0,1-12.46-6c-6.71-4.74-8.95-11.62-9.82-19.46-1.59-14.26-3.67-28.46-5.47-42.7-.47-3.74-3.08-6.14-5.14-8.91-8.87-11.92-14.61-25-14.44-40.14.08-7.35,1.63-14.68,5.53-20.77,3.61-5.63,3.22-11,2.42-17-1.18-8.76-2.51-17.5-3.2-26.34-1.8-23,7.35-40.52,26.43-53.08,9.75-6.43,20.1-11.38,31.76-13.5,22-4,40.45,6.18,48.36,27.24a69.41,69.41,0,0,1,3.32,10.77C141,70.9,142,78.23,141.36,84.67ZM53.71,212.55a32.91,32.91,0,0,0,0,4c1.55,10.9,3.52,21.75,4.61,32.68.83,8.25,5.51,12.9,12.55,15.49,9.68,3.54,19.85,2.52,29.66,1.07,17.29-2.56,25.1-12.75,24.09-30.17-.37-6.36-1.21-12.69-2-19-.25-1.91.75-4.72-1.25-5.56-2.35-1-2.79,2.35-4.42,3.38a17.31,17.31,0,0,0-2.18,2.11c-2,1.88-4.32,3.58-6.75,1s-.66-4.85,1.14-6.87c2.8-3.13,5.66-6.21,8.55-9.26a10.32,10.32,0,0,0,2.79-9.11,134.76,134.76,0,0,1,0-34.23c1.34-10.68,4.13-21,7.12-31.32,1-3.42.16-5.81-2.38-8.09A109.32,109.32,0,0,0,90.75,98.1a5.07,5.07,0,0,0-4.52.11c-14.43,7.27-28.11,15.52-39.39,27.37a12.49,12.49,0,0,0-3.56,11.31C45.72,155,48,173.07,50.16,191.18c.58,4.76,1.84,8.94,5.86,12,3,2.29,5.63,5,8.38,7.57,1.75,1.64,3.47,3.54,1.51,5.95-1.73,2.12-3.94,2.08-6.12.35C58,215.68,56.13,214.36,53.71,212.55ZM41.49,119.67A129.25,129.25,0,0,1,76.64,94.41c5.48-2.76,7.84-5.76,7.47-12.11a14.13,14.13,0,0,1,9.36-13.85c2.19-.73,4.06-.65,5.28,1.47,1.31,2.3,0,3.81-1.86,5a19.89,19.89,0,0,0-2.53,1.69c-4.51,3.93-4.75,12.59-.23,14.53,12.17,5.23,23.78,11.32,33.85,20.06,1.54,1.33,2.69,1.47,3.17-1.1,3.27-17.87,4.41-35.69-1.67-53.21-6.38-18.4-20.65-27-39.93-24-12.35,1.86-22.84,8-32.83,15.08A45.67,45.67,0,0,0,39.57,70.82C34.08,86.93,39.29,102.52,41.49,119.67Zm87,65.33a61.31,61.31,0,0,0,7.14-14.44c4-11.28,5.74-22.68,1-34.21-.39-1-.25-2.65-1.84-2.57-1.44.08-1.51,1.59-1.82,2.64-4,13.52-6.41,27.26-6,41.42A14,14,0,0,0,128.5,185Zm-87.34-2.11c-1.3-12.67-2.11-25.41-5.32-37.8C30.74,158.64,33.52,171.1,41.16,182.89Z">
       </path>
       <path d="M215.76,274.73c-16.38-.33-28.88-2.3-39.23-11-6.53-5.51-10.12-12.55-9.87-21.32.36-12.79,2.59-25.36,4.43-38a10.73,10.73,0,0,0-1.83-8.49c-8-11.4-13.76-23.78-15.77-37.73a48.61,48.61,0,0,1,7.48-34c1.49-2.34,2.25-4.35,1.46-7.23-4.51-16.61-4.63-33.56-2.85-50.5,1.1-10.48,4.28-20.43,11.61-28.52,10.1-11.16,23.24-14,37.31-12.27a77.29,77.29,0,0,1,49.95,26.46c11.09,12.61,13.34,27.89,11.46,44q-1.67,14.25-3.61,28.46a10.61,10.61,0,0,0,1.12,7.1c12,20.9,9.45,41.46-4.27,59.89-7,9.42-9.06,19.23-10.4,29.95-1.24,9.92-2.88,19.8-3.83,29.74-.88,9.19-6.38,14.62-13.82,18.66C228,273.77,220.37,275.07,215.76,274.73Zm30.86-60.86-1-.49c-1.58,1.2-3.2,2.36-4.74,3.61-2.11,1.72-4.45,2.82-6.46.31s-.53-4.64,1.61-6.29a110.31,110.31,0,0,0,10.52-9.75,9.36,9.36,0,0,0,2.84-5.68c2.45-18.81,4.93-37.63,7.6-56.41.82-5.75.14-10.35-4.37-14.86-11.14-11.14-24.25-19.16-38.15-26.15a5,5,0,0,0-4.54-.2c-12.81,5.26-24.88,11.72-35.09,21.27-2.07,1.94-2.89,3.82-2,6.84,6.64,22.4,10.75,45.1,7,68.58a6,6,0,0,0,1.66,5.19c3.57,4,7,8.12,10.63,12.06,1.72,1.86,2.46,3.72.67,5.71s-4,1.67-5.79,0-3.67-3.69-5.46-5.59c-.71-.76-1.46-1.76-2.48-1.48s-1,1.64-1.07,2.62c-.92,8.35-1.88,16.7-2.75,25.06-1.17,11.33,6.46,23.14,17.23,26.32a71.84,71.84,0,0,0,33.13,1.83,19.6,19.6,0,0,0,16.08-16.88c.7-5,1.58-10,2.26-15C244.92,227.61,245.74,220.74,246.62,213.87ZM166.78,85.63c-.72,7.52.26,15.72,1.8,23.86.4,2.13.79,4.91,3.95,2.09,9.88-8.82,21.56-14.57,33.62-19.65A4,4,0,0,0,209,87.61c-.23-4.72-.44-9.32-5.64-11.75-1.83-.86-3.41-2.37-2.09-4.9a3.87,3.87,0,0,1,5.09-2.09A12.64,12.64,0,0,1,210.56,71c5.35,4.28,6.38,10.26,6.15,16.45-.12,3,.78,4.4,3.34,5.65,13.09,6.39,25.3,14.12,35.92,24.19.69.66,1.28,1.92,2.43,1.53s1.22-1.86,1.37-3c1.19-8.77,2.67-17.51,3.41-26.31.92-10.91-1.6-21.32-8.5-29.85-13.87-17.15-32-26.36-54.28-26.4-14.49,0-25.8,8.63-30.32,22.33C166.93,65.17,166.32,74.93,166.78,85.63ZM173,186.26c1.9-19-.92-36.41-6.62-53.65C157.05,144.39,160.26,168.37,173,186.26Zm86.23-3.95c7.63-11.94,10-24.61,5.07-38.25C261.35,156.62,260.25,169.44,259.19,182.31Z">
       </path>
    </g>
</svg>