<svg id="1980144874" data-name="Layer 1" xmlns="http://www.w3.org/2000/svg" viewbox="0 0 300 300" class="svg u_1980144874" data-icon-custom="true" data-icon-name="hawaiiArtboard 2_1.svg">
      <g id="KSobhj.tif">
            <path d="M142.37,280.58q-48.75,0-97.5,0c-2.16,0-4.8.84-6.1-1.82s.46-4.53,2.12-6.39c9.71-10.84,22.3-17,35.61-22a163.6,163.6,0,0,1,32.16-8c3.3-.52,4.27-1.42,3.77-4.92-3.84-26.74-4.64-53.51.87-80.14A128.72,128.72,0,0,1,125.09,124c.52-1,1.87-2.16,1-3.24-1.12-1.34-2.55,0-3.66.48-12.65,6-21.27,15.75-26.28,28.81-1.12,2.92-1.17,7.38-5.73,7.05-4.86-.35-3.83-4.92-4.1-7.9-2.22-24.34,7.36-43.35,26.65-57.83a31.64,31.64,0,0,0,3-2.08c1.15-1.09,3.86-1.19,3.3-3.13-.29-1-2.65-1.69-4.18-2.16A55.7,55.7,0,0,0,55.24,102.5a22.13,22.13,0,0,1-1.71,2.13c-1.48,1.41-3.14,2.53-5.27,1.41s-2.36-2.91-2-5.07A58.58,58.58,0,0,1,60.7,70.12C76.36,52.67,96,45.78,119.2,48.67c1.27.16,3.12,1.14,3.75-.22.8-1.72-1.29-2.43-2.39-3.31-9.2-7.37-19.9-10.77-31.5-11.6-2.56-.19-5.06-.28-5.71-3.3s1.57-4.16,3.9-5.27c27.42-13.07,63.39-2.67,79.51,23,3.34,5.33,3.34,5.33,9.59,2.82C201,41,230,49.35,246.88,71.09a77.15,77.15,0,0,1,14.46,31.55c.52,2.41.82,4.69-1.67,6-2.67,1.38-4.67-.16-6.2-2.26-5.53-7.6-12.18-13.92-20.63-18.18-13.94-7-28.14-7.48-42.61-1.58-3.45,1.41-3.78,2.5-.72,5,17.34,14,25.38,32.41,25.09,54.55a57.13,57.13,0,0,1-2.33,14.32c-.65,2.34-1.48,4.53-4.28,4.54-3.13,0-3.93-2.53-4.38-4.95a55.22,55.22,0,0,0-11.17-24.56c-6.12-7.73-14.07-12.74-23.05-16.44-2.51-1-3.22.38-4.07,2.09a95.89,95.89,0,0,0-9,29.45c-4.19,30.24,2.25,59.11,11.31,87.65.85,2.68,2.65,3,4.79,3.26A165.5,165.5,0,0,1,214.18,252c11.34,4.6,21.86,10.47,30.28,19.62,1.7,1.86,3.48,3.62,2.48,6.34-1.07,2.91-3.7,2.65-6.16,2.65ZM94.9,132.18a9.72,9.72,0,0,0,4.14-3.5,57.31,57.31,0,0,1,13.7-11.86C142,98.43,184.62,106.66,202.87,137c.48.79.64,2.4,2.13,1.79s.47-1.9.33-2.82c-2.8-18.46-11.52-33-28.27-42.07-4.63-2.51-5.29-5.55-1.44-8.11,17.67-11.76,36.41-14,56.28-6.22,4.89,1.91,9.14,5,14.07,7.09a43.1,43.1,0,0,0-9.12-14.42c-17.18-18.64-43.42-23.36-65-10.57-4.41,2.61-6,2-8.14-2.68-6.81-14.78-18.06-24.48-33.43-29.45a50.32,50.32,0,0,0-22.74-2.24c.41.7.49,1.06.71,1.17q2,1,4.09,2a62.3,62.3,0,0,1,27.94,23.9c1.35,2.14,2.43,4.46.48,6.69s-4.39,1.42-6.69.37c-.69-.32-1.36-.67-2.05-1C108,49.09,76.82,58.15,62.6,80.59c-.65,1-2,2-.7,3.7,1.2-.71,2.35-1.4,3.52-2.07C85.91,70.52,106.8,69.64,128,80.09c2.83,1.39,7.11,2.19,6.73,6.43S130,90.68,127.14,92C110.18,100.07,99.51,113.11,94.9,132.18ZM118,199.32c-.65,12,.8,24.66,2.48,37.3.28,2.13.49,4.12,3.71,3.92a249.7,249.7,0,0,1,31.31-.25c2.63.17,3.56-.46,2.63-3.36a243,243,0,0,1-9.07-37c-4.27-27.35-4.75-54.38,7.72-80.12,1.08-2.22.64-3.31-1.78-3.8-3.47-.71-7-.38-10.44-.45a7.82,7.82,0,0,0-7.46,4.18,130.67,130.67,0,0,0-9,17.82C120.31,157.13,117.28,177.54,118,199.32ZM142.29,273h80.6c1.82,0,3.64,0,5.46-.1.87,0,2,.12,2.25-1s-.75-1.55-1.48-2.07a85.54,85.54,0,0,0-17.07-9.42c-21.87-9.26-44.94-12.2-68.41-12.49a195.31,195.31,0,0,0-34.89,2.51c-17.91,3-35.25,7.68-50.69,17.73-1.51,1-4.37,1.7-3.64,3.91.57,1.75,3.27.9,5,.9Q100.85,273.07,142.29,273Z">
            </path>
      </g>
</svg>