<svg xmlns="http://www.w3.org/2000/svg" viewbox="0 0 100 100" id="1357789922" class="svg u_1357789922" data-icon-name="li_inkwell">
         <g>
          <path d="M68.5,13.6c-0.2-0.6-0.8-0.9-1.4-0.8C60,14.3,53.9,18.7,50.3,25C46.8,31,46,38.3,48,45.1l-5.8,10l2.1,1.2l5.8-10
		c6.9-1.6,12.8-5.9,16.3-12C70,28,70.8,20.5,68.5,13.6z M64.3,33.1c-2.8,4.8-7.2,8.4-12.5,10.2L62.4,25l-2.1-1.2L49.8,42.1
		c-1.1-5.4-0.2-11.1,2.6-15.9c3.1-5.3,8.2-9.2,14.2-10.8C68.2,21.4,67.4,27.7,64.3,33.1z">
          </path>
          <path d="M50.5,61.8v-6.1h-2.4v6.6c0,0.3,0.1,0.6,0.4,0.9l5.5,5.5v16.2H32.6V68.7l5.5-5.5c0.2-0.2,0.4-0.5,0.4-0.9v-6.6h-2.4v6.1
		l-5.5,5.5c-0.2,0.2-0.3,0.5-0.3,0.9V86c0,0.7,0.5,1.2,1.2,1.2h23.8c0.7,0,1.2-0.5,1.2-1.2V68.2c0-0.3-0.1-0.6-0.3-0.9L50.5,61.8z">
          </path>
          <rect x="37.3" y="73.1" width="12" height="2.4">
          </rect>
         </g>
        </svg>