<svg xmlns="http://www.w3.org/2000/svg" viewbox="0 0 100 100" id="1190810175" class="svg u_1190810175" data-icon-name="general_trash_can">
    <path d="M70.86,22.42H55.41V21.09a4.69,4.69,0,0,0-4.69-4.69H49.28a4.69,4.69,0,0,0-4.69,4.69v1.33H29.14a7.27,7.27,0,0,0-7.26,7.26v3.59a1.3,1.3,0,0,0,1.3,1.3h1.65v40a9,9,0,0,0,9,9H66.19a9,9,0,0,0,9-9v-40h1.65a1.3,1.3,0,0,0,1.3-1.3V29.68A7.27,7.27,0,0,0,70.86,22.42ZM47.19,21.09A2.1,2.1,0,0,1,49.28,19h1.44a2.1,2.1,0,0,1,2.09,2.09v1.33H47.19ZM72.58,74.62A6.39,6.39,0,0,1,66.19,81H33.81a6.39,6.39,0,0,1-6.39-6.39v-40H72.58Zm3-42.64H24.47v-2.3A4.67,4.67,0,0,1,29.14,25H70.86a4.67,4.67,0,0,1,4.67,4.67Z">
    </path>
    <path d="M50,44.82a1.3,1.3,0,0,0-1.3,1.3V68.77a1.3,1.3,0,0,0,2.59,0V46.11A1.3,1.3,0,0,0,50,44.82Z">
    </path>
    <path d="M62.07,44.82a1.3,1.3,0,0,0-1.3,1.3V68.77a1.3,1.3,0,1,0,2.59,0V46.11A1.3,1.3,0,0,0,62.07,44.82Z">
    </path>
    <path d="M37.93,44.82a1.3,1.3,0,0,0-1.3,1.3V68.77a1.3,1.3,0,1,0,2.59,0V46.11A1.3,1.3,0,0,0,37.93,44.82Z">
    </path>
</svg>