<svg xmlns="http://www.w3.org/2000/svg" viewbox="0 0 100 100" id="1199593643" class="svg u_1199593643" data-icon-name="li_syringe">
         <path d="M68.4,60.4h-4.9V35.9H51.2V12.5h-2.5v23.3H36.5v24.6h-4.9c-4.1,0-7.4,3.3-7.4,7.4c0,4.1,3.3,7.4,7.4,7.4h17.2V85H37.7v2.5
	h24.6V85H51.2v-9.8h17.2c4.1,0,7.4-3.3,7.4-7.4C75.8,63.7,72.5,60.4,68.4,60.4z M26.7,67.8c0-2.7,2.2-4.9,4.9-4.9h4.9v9.8h-4.9
	C28.9,72.7,26.7,70.5,26.7,67.8z M56.1,56.8v-2.5H43.9v2.5h4.9v16h-9.8V38.3H61v34.4h-9.8v-16H56.1z M68.4,72.7h-4.9v-9.8h4.9
	c2.7,0,4.9,2.2,4.9,4.9C73.3,70.5,71.1,72.7,68.4,72.7z">
         </path>
        </svg>